<?xml version="1.0" encoding="utf-8" standalone="no"?>
<!DOCTYPE svg PUBLIC "-//W3C//DTD SVG 1.1//EN"
  "http://www.w3.org/Graphics/SVG/1.1/DTD/svg11.dtd">
<svg xmlns:xlink="http://www.w3.org/1999/xlink" width="576pt" height="648pt" viewBox="0 0 576 648" xmlns="http://www.w3.org/2000/svg" version="1.1">
 <metadata>
  <rdf:RDF xmlns:dc="http://purl.org/dc/elements/1.1/" xmlns:cc="http://creativecommons.org/ns#" xmlns:rdf="http://www.w3.org/1999/02/22-rdf-syntax-ns#">
   <cc:Work>
    <dc:type rdf:resource="http://purl.org/dc/dcmitype/StillImage"/>
    <dc:date>2026-04-23T14:59:49.173708</dc:date>
    <dc:format>image/svg+xml</dc:format>
    <dc:creator>
     <cc:Agent>
      <dc:title>Matplotlib v3.10.8, https://matplotlib.org/</dc:title>
     </cc:Agent>
    </dc:creator>
   </cc:Work>
  </rdf:RDF>
 </metadata>
 <defs>
  <style type="text/css">*{stroke-linejoin: round; stroke-linecap: butt}</style>
 </defs>
 <g id="figure_1">
  <g id="patch_1">
   <path d="M 0 648 
L 576 648 
L 576 0 
L 0 0 
z
" style="fill: #ffffff"/>
  </g>
  <g id="axes_1">
   <g id="patch_2">
    <path d="M 54.02 206.04 
L 565.2 206.04 
L 565.2 26.88 
L 54.02 26.88 
z
" style="fill: #ffffff"/>
   </g>
   <g id="matplotlib.axis_1">
    <g id="xtick_1">
     <g id="line2d_1">
      <defs>
       <path id="mf08a70a2bf" d="M 0 0 
L 0 3.5 
" style="stroke: #000000; stroke-width: 0.8"/>
      </defs>
      <g>
       <use xlink:href="#mf08a70a2bf" x="101.529365" y="206.04" style="stroke: #000000; stroke-width: 0.8"/>
      </g>
     </g>
     <g id="text_1">
      <!-- 0.5 -->
      <g transform="translate(93.577803 220.638438) scale(0.1 -0.1)">
       <defs>
        <path id="DejaVuSans-30" d="M 2034 4250 
Q 1547 4250 1301 3770 
Q 1056 3291 1056 2328 
Q 1056 1369 1301 889 
Q 1547 409 2034 409 
Q 2525 409 2770 889 
Q 3016 1369 3016 2328 
Q 3016 3291 2770 3770 
Q 2525 4250 2034 4250 
z
M 2034 4750 
Q 2819 4750 3233 4129 
Q 3647 3509 3647 2328 
Q 3647 1150 3233 529 
Q 2819 -91 2034 -91 
Q 1250 -91 836 529 
Q 422 1150 422 2328 
Q 422 3509 836 4129 
Q 1250 4750 2034 4750 
z
" transform="scale(0.015625)"/>
        <path id="DejaVuSans-2e" d="M 684 794 
L 1344 794 
L 1344 0 
L 684 0 
L 684 794 
z
" transform="scale(0.015625)"/>
        <path id="DejaVuSans-35" d="M 691 4666 
L 3169 4666 
L 3169 4134 
L 1269 4134 
L 1269 2991 
Q 1406 3038 1543 3061 
Q 1681 3084 1819 3084 
Q 2600 3084 3056 2656 
Q 3513 2228 3513 1497 
Q 3513 744 3044 326 
Q 2575 -91 1722 -91 
Q 1428 -91 1123 -41 
Q 819 9 494 109 
L 494 744 
Q 775 591 1075 516 
Q 1375 441 1709 441 
Q 2250 441 2565 725 
Q 2881 1009 2881 1497 
Q 2881 1984 2565 2268 
Q 2250 2553 1709 2553 
Q 1456 2553 1204 2497 
Q 953 2441 691 2322 
L 691 4666 
z
" transform="scale(0.015625)"/>
       </defs>
       <use xlink:href="#DejaVuSans-30"/>
       <use xlink:href="#DejaVuSans-2e" transform="translate(63.623047 0)"/>
       <use xlink:href="#DejaVuSans-35" transform="translate(95.410156 0)"/>
      </g>
     </g>
    </g>
    <g id="xtick_2">
     <g id="line2d_2">
      <g>
       <use xlink:href="#mf08a70a2bf" x="166.432869" y="206.04" style="stroke: #000000; stroke-width: 0.8"/>
      </g>
     </g>
     <g id="text_2">
      <!-- 1.0 -->
      <g transform="translate(158.481307 220.638438) scale(0.1 -0.1)">
       <defs>
        <path id="DejaVuSans-31" d="M 794 531 
L 1825 531 
L 1825 4091 
L 703 3866 
L 703 4441 
L 1819 4666 
L 2450 4666 
L 2450 531 
L 3481 531 
L 3481 0 
L 794 0 
L 794 531 
z
" transform="scale(0.015625)"/>
       </defs>
       <use xlink:href="#DejaVuSans-31"/>
       <use xlink:href="#DejaVuSans-2e" transform="translate(63.623047 0)"/>
       <use xlink:href="#DejaVuSans-30" transform="translate(95.410156 0)"/>
      </g>
     </g>
    </g>
    <g id="xtick_3">
     <g id="line2d_3">
      <g>
       <use xlink:href="#mf08a70a2bf" x="231.336374" y="206.04" style="stroke: #000000; stroke-width: 0.8"/>
      </g>
     </g>
     <g id="text_3">
      <!-- 1.5 -->
      <g transform="translate(223.384811 220.638438) scale(0.1 -0.1)">
       <use xlink:href="#DejaVuSans-31"/>
       <use xlink:href="#DejaVuSans-2e" transform="translate(63.623047 0)"/>
       <use xlink:href="#DejaVuSans-35" transform="translate(95.410156 0)"/>
      </g>
     </g>
    </g>
    <g id="xtick_4">
     <g id="line2d_4">
      <g>
       <use xlink:href="#mf08a70a2bf" x="296.239878" y="206.04" style="stroke: #000000; stroke-width: 0.8"/>
      </g>
     </g>
     <g id="text_4">
      <!-- 2.0 -->
      <g transform="translate(288.288316 220.638438) scale(0.1 -0.1)">
       <defs>
        <path id="DejaVuSans-32" d="M 1228 531 
L 3431 531 
L 3431 0 
L 469 0 
L 469 531 
Q 828 903 1448 1529 
Q 2069 2156 2228 2338 
Q 2531 2678 2651 2914 
Q 2772 3150 2772 3378 
Q 2772 3750 2511 3984 
Q 2250 4219 1831 4219 
Q 1534 4219 1204 4116 
Q 875 4013 500 3803 
L 500 4441 
Q 881 4594 1212 4672 
Q 1544 4750 1819 4750 
Q 2544 4750 2975 4387 
Q 3406 4025 3406 3419 
Q 3406 3131 3298 2873 
Q 3191 2616 2906 2266 
Q 2828 2175 2409 1742 
Q 1991 1309 1228 531 
z
" transform="scale(0.015625)"/>
       </defs>
       <use xlink:href="#DejaVuSans-32"/>
       <use xlink:href="#DejaVuSans-2e" transform="translate(63.623047 0)"/>
       <use xlink:href="#DejaVuSans-30" transform="translate(95.410156 0)"/>
      </g>
     </g>
    </g>
    <g id="xtick_5">
     <g id="line2d_5">
      <g>
       <use xlink:href="#mf08a70a2bf" x="361.143382" y="206.04" style="stroke: #000000; stroke-width: 0.8"/>
      </g>
     </g>
     <g id="text_5">
      <!-- 2.5 -->
      <g transform="translate(353.19182 220.638438) scale(0.1 -0.1)">
       <use xlink:href="#DejaVuSans-32"/>
       <use xlink:href="#DejaVuSans-2e" transform="translate(63.623047 0)"/>
       <use xlink:href="#DejaVuSans-35" transform="translate(95.410156 0)"/>
      </g>
     </g>
    </g>
    <g id="xtick_6">
     <g id="line2d_6">
      <g>
       <use xlink:href="#mf08a70a2bf" x="426.046887" y="206.04" style="stroke: #000000; stroke-width: 0.8"/>
      </g>
     </g>
     <g id="text_6">
      <!-- 3.0 -->
      <g transform="translate(418.095324 220.638438) scale(0.1 -0.1)">
       <defs>
        <path id="DejaVuSans-33" d="M 2597 2516 
Q 3050 2419 3304 2112 
Q 3559 1806 3559 1356 
Q 3559 666 3084 287 
Q 2609 -91 1734 -91 
Q 1441 -91 1130 -33 
Q 819 25 488 141 
L 488 750 
Q 750 597 1062 519 
Q 1375 441 1716 441 
Q 2309 441 2620 675 
Q 2931 909 2931 1356 
Q 2931 1769 2642 2001 
Q 2353 2234 1838 2234 
L 1294 2234 
L 1294 2753 
L 1863 2753 
Q 2328 2753 2575 2939 
Q 2822 3125 2822 3475 
Q 2822 3834 2567 4026 
Q 2313 4219 1838 4219 
Q 1578 4219 1281 4162 
Q 984 4106 628 3988 
L 628 4550 
Q 988 4650 1302 4700 
Q 1616 4750 1894 4750 
Q 2613 4750 3031 4423 
Q 3450 4097 3450 3541 
Q 3450 3153 3228 2886 
Q 3006 2619 2597 2516 
z
" transform="scale(0.015625)"/>
       </defs>
       <use xlink:href="#DejaVuSans-33"/>
       <use xlink:href="#DejaVuSans-2e" transform="translate(63.623047 0)"/>
       <use xlink:href="#DejaVuSans-30" transform="translate(95.410156 0)"/>
      </g>
     </g>
    </g>
    <g id="xtick_7">
     <g id="line2d_7">
      <g>
       <use xlink:href="#mf08a70a2bf" x="490.950391" y="206.04" style="stroke: #000000; stroke-width: 0.8"/>
      </g>
     </g>
     <g id="text_7">
      <!-- 3.5 -->
      <g transform="translate(482.998829 220.638438) scale(0.1 -0.1)">
       <use xlink:href="#DejaVuSans-33"/>
       <use xlink:href="#DejaVuSans-2e" transform="translate(63.623047 0)"/>
       <use xlink:href="#DejaVuSans-35" transform="translate(95.410156 0)"/>
      </g>
     </g>
    </g>
    <g id="xtick_8">
     <g id="line2d_8">
      <g>
       <use xlink:href="#mf08a70a2bf" x="555.853895" y="206.04" style="stroke: #000000; stroke-width: 0.8"/>
      </g>
     </g>
     <g id="text_8">
      <!-- 4.0 -->
      <g transform="translate(547.902333 220.638438) scale(0.1 -0.1)">
       <defs>
        <path id="DejaVuSans-34" d="M 2419 4116 
L 825 1625 
L 2419 1625 
L 2419 4116 
z
M 2253 4666 
L 3047 4666 
L 3047 1625 
L 3713 1625 
L 3713 1100 
L 3047 1100 
L 3047 0 
L 2419 0 
L 2419 1100 
L 313 1100 
L 313 1709 
L 2253 4666 
z
" transform="scale(0.015625)"/>
       </defs>
       <use xlink:href="#DejaVuSans-34"/>
       <use xlink:href="#DejaVuSans-2e" transform="translate(63.623047 0)"/>
       <use xlink:href="#DejaVuSans-30" transform="translate(95.410156 0)"/>
      </g>
     </g>
    </g>
   </g>
   <g id="matplotlib.axis_2">
    <g id="ytick_1">
     <g id="line2d_9">
      <path d="M 54.02 186.678208 
L 565.2 186.678208 
" clip-path="url(#p39a2cee8c5)" style="fill: none; stroke-dasharray: 0.8,1.32; stroke-dashoffset: 0; stroke: #b0b0b0; stroke-opacity: 0.35; stroke-width: 0.8"/>
     </g>
     <g id="line2d_10">
      <defs>
       <path id="mca8a17cf85" d="M 0 0 
L -3.5 0 
" style="stroke: #000000; stroke-width: 0.8"/>
      </defs>
      <g>
       <use xlink:href="#mca8a17cf85" x="54.02" y="186.678208" style="stroke: #000000; stroke-width: 0.8"/>
      </g>
     </g>
     <g id="text_9">
      <!-- 0.75 -->
      <g transform="translate(24.754375 190.477427) scale(0.1 -0.1)">
       <defs>
        <path id="DejaVuSans-37" d="M 525 4666 
L 3525 4666 
L 3525 4397 
L 1831 0 
L 1172 0 
L 2766 4134 
L 525 4134 
L 525 4666 
z
" transform="scale(0.015625)"/>
       </defs>
       <use xlink:href="#DejaVuSans-30"/>
       <use xlink:href="#DejaVuSans-2e" transform="translate(63.623047 0)"/>
       <use xlink:href="#DejaVuSans-37" transform="translate(95.410156 0)"/>
       <use xlink:href="#DejaVuSans-35" transform="translate(159.033203 0)"/>
      </g>
     </g>
    </g>
    <g id="ytick_2">
     <g id="line2d_11">
      <path d="M 54.02 154.352955 
L 565.2 154.352955 
" clip-path="url(#p39a2cee8c5)" style="fill: none; stroke-dasharray: 0.8,1.32; stroke-dashoffset: 0; stroke: #b0b0b0; stroke-opacity: 0.35; stroke-width: 0.8"/>
     </g>
     <g id="line2d_12">
      <g>
       <use xlink:href="#mca8a17cf85" x="54.02" y="154.352955" style="stroke: #000000; stroke-width: 0.8"/>
      </g>
     </g>
     <g id="text_10">
      <!-- 0.80 -->
      <g transform="translate(24.754375 158.152173) scale(0.1 -0.1)">
       <defs>
        <path id="DejaVuSans-38" d="M 2034 2216 
Q 1584 2216 1326 1975 
Q 1069 1734 1069 1313 
Q 1069 891 1326 650 
Q 1584 409 2034 409 
Q 2484 409 2743 651 
Q 3003 894 3003 1313 
Q 3003 1734 2745 1975 
Q 2488 2216 2034 2216 
z
M 1403 2484 
Q 997 2584 770 2862 
Q 544 3141 544 3541 
Q 544 4100 942 4425 
Q 1341 4750 2034 4750 
Q 2731 4750 3128 4425 
Q 3525 4100 3525 3541 
Q 3525 3141 3298 2862 
Q 3072 2584 2669 2484 
Q 3125 2378 3379 2068 
Q 3634 1759 3634 1313 
Q 3634 634 3220 271 
Q 2806 -91 2034 -91 
Q 1263 -91 848 271 
Q 434 634 434 1313 
Q 434 1759 690 2068 
Q 947 2378 1403 2484 
z
M 1172 3481 
Q 1172 3119 1398 2916 
Q 1625 2713 2034 2713 
Q 2441 2713 2670 2916 
Q 2900 3119 2900 3481 
Q 2900 3844 2670 4047 
Q 2441 4250 2034 4250 
Q 1625 4250 1398 4047 
Q 1172 3844 1172 3481 
z
" transform="scale(0.015625)"/>
       </defs>
       <use xlink:href="#DejaVuSans-30"/>
       <use xlink:href="#DejaVuSans-2e" transform="translate(63.623047 0)"/>
       <use xlink:href="#DejaVuSans-38" transform="translate(95.410156 0)"/>
       <use xlink:href="#DejaVuSans-30" transform="translate(159.033203 0)"/>
      </g>
     </g>
    </g>
    <g id="ytick_3">
     <g id="line2d_13">
      <path d="M 54.02 122.027702 
L 565.2 122.027702 
" clip-path="url(#p39a2cee8c5)" style="fill: none; stroke-dasharray: 0.8,1.32; stroke-dashoffset: 0; stroke: #b0b0b0; stroke-opacity: 0.35; stroke-width: 0.8"/>
     </g>
     <g id="line2d_14">
      <g>
       <use xlink:href="#mca8a17cf85" x="54.02" y="122.027702" style="stroke: #000000; stroke-width: 0.8"/>
      </g>
     </g>
     <g id="text_11">
      <!-- 0.85 -->
      <g transform="translate(24.754375 125.82692) scale(0.1 -0.1)">
       <use xlink:href="#DejaVuSans-30"/>
       <use xlink:href="#DejaVuSans-2e" transform="translate(63.623047 0)"/>
       <use xlink:href="#DejaVuSans-38" transform="translate(95.410156 0)"/>
       <use xlink:href="#DejaVuSans-35" transform="translate(159.033203 0)"/>
      </g>
     </g>
    </g>
    <g id="ytick_4">
     <g id="line2d_15">
      <path d="M 54.02 89.702448 
L 565.2 89.702448 
" clip-path="url(#p39a2cee8c5)" style="fill: none; stroke-dasharray: 0.8,1.32; stroke-dashoffset: 0; stroke: #b0b0b0; stroke-opacity: 0.35; stroke-width: 0.8"/>
     </g>
     <g id="line2d_16">
      <g>
       <use xlink:href="#mca8a17cf85" x="54.02" y="89.702448" style="stroke: #000000; stroke-width: 0.8"/>
      </g>
     </g>
     <g id="text_12">
      <!-- 0.90 -->
      <g transform="translate(24.754375 93.501667) scale(0.1 -0.1)">
       <defs>
        <path id="DejaVuSans-39" d="M 703 97 
L 703 672 
Q 941 559 1184 500 
Q 1428 441 1663 441 
Q 2288 441 2617 861 
Q 2947 1281 2994 2138 
Q 2813 1869 2534 1725 
Q 2256 1581 1919 1581 
Q 1219 1581 811 2004 
Q 403 2428 403 3163 
Q 403 3881 828 4315 
Q 1253 4750 1959 4750 
Q 2769 4750 3195 4129 
Q 3622 3509 3622 2328 
Q 3622 1225 3098 567 
Q 2575 -91 1691 -91 
Q 1453 -91 1209 -44 
Q 966 3 703 97 
z
M 1959 2075 
Q 2384 2075 2632 2365 
Q 2881 2656 2881 3163 
Q 2881 3666 2632 3958 
Q 2384 4250 1959 4250 
Q 1534 4250 1286 3958 
Q 1038 3666 1038 3163 
Q 1038 2656 1286 2365 
Q 1534 2075 1959 2075 
z
" transform="scale(0.015625)"/>
       </defs>
       <use xlink:href="#DejaVuSans-30"/>
       <use xlink:href="#DejaVuSans-2e" transform="translate(63.623047 0)"/>
       <use xlink:href="#DejaVuSans-39" transform="translate(95.410156 0)"/>
       <use xlink:href="#DejaVuSans-30" transform="translate(159.033203 0)"/>
      </g>
     </g>
    </g>
    <g id="ytick_5">
     <g id="line2d_17">
      <path d="M 54.02 57.377195 
L 565.2 57.377195 
" clip-path="url(#p39a2cee8c5)" style="fill: none; stroke-dasharray: 0.8,1.32; stroke-dashoffset: 0; stroke: #b0b0b0; stroke-opacity: 0.35; stroke-width: 0.8"/>
     </g>
     <g id="line2d_18">
      <g>
       <use xlink:href="#mca8a17cf85" x="54.02" y="57.377195" style="stroke: #000000; stroke-width: 0.8"/>
      </g>
     </g>
     <g id="text_13">
      <!-- 0.95 -->
      <g transform="translate(24.754375 61.176414) scale(0.1 -0.1)">
       <use xlink:href="#DejaVuSans-30"/>
       <use xlink:href="#DejaVuSans-2e" transform="translate(63.623047 0)"/>
       <use xlink:href="#DejaVuSans-39" transform="translate(95.410156 0)"/>
       <use xlink:href="#DejaVuSans-35" transform="translate(159.033203 0)"/>
      </g>
     </g>
    </g>
    <g id="text_14">
     <!-- accuracy -->
     <g transform="translate(18.674688 139.019375) rotate(-90) scale(0.1 -0.1)">
      <defs>
       <path id="DejaVuSans-61" d="M 2194 1759 
Q 1497 1759 1228 1600 
Q 959 1441 959 1056 
Q 959 750 1161 570 
Q 1363 391 1709 391 
Q 2188 391 2477 730 
Q 2766 1069 2766 1631 
L 2766 1759 
L 2194 1759 
z
M 3341 1997 
L 3341 0 
L 2766 0 
L 2766 531 
Q 2569 213 2275 61 
Q 1981 -91 1556 -91 
Q 1019 -91 701 211 
Q 384 513 384 1019 
Q 384 1609 779 1909 
Q 1175 2209 1959 2209 
L 2766 2209 
L 2766 2266 
Q 2766 2663 2505 2880 
Q 2244 3097 1772 3097 
Q 1472 3097 1187 3025 
Q 903 2953 641 2809 
L 641 3341 
Q 956 3463 1253 3523 
Q 1550 3584 1831 3584 
Q 2591 3584 2966 3190 
Q 3341 2797 3341 1997 
z
" transform="scale(0.015625)"/>
       <path id="DejaVuSans-63" d="M 3122 3366 
L 3122 2828 
Q 2878 2963 2633 3030 
Q 2388 3097 2138 3097 
Q 1578 3097 1268 2742 
Q 959 2388 959 1747 
Q 959 1106 1268 751 
Q 1578 397 2138 397 
Q 2388 397 2633 464 
Q 2878 531 3122 666 
L 3122 134 
Q 2881 22 2623 -34 
Q 2366 -91 2075 -91 
Q 1284 -91 818 406 
Q 353 903 353 1747 
Q 353 2603 823 3093 
Q 1294 3584 2113 3584 
Q 2378 3584 2631 3529 
Q 2884 3475 3122 3366 
z
" transform="scale(0.015625)"/>
       <path id="DejaVuSans-75" d="M 544 1381 
L 544 3500 
L 1119 3500 
L 1119 1403 
Q 1119 906 1312 657 
Q 1506 409 1894 409 
Q 2359 409 2629 706 
Q 2900 1003 2900 1516 
L 2900 3500 
L 3475 3500 
L 3475 0 
L 2900 0 
L 2900 538 
Q 2691 219 2414 64 
Q 2138 -91 1772 -91 
Q 1169 -91 856 284 
Q 544 659 544 1381 
z
M 1991 3584 
L 1991 3584 
z
" transform="scale(0.015625)"/>
       <path id="DejaVuSans-72" d="M 2631 2963 
Q 2534 3019 2420 3045 
Q 2306 3072 2169 3072 
Q 1681 3072 1420 2755 
Q 1159 2438 1159 1844 
L 1159 0 
L 581 0 
L 581 3500 
L 1159 3500 
L 1159 2956 
Q 1341 3275 1631 3429 
Q 1922 3584 2338 3584 
Q 2397 3584 2469 3576 
Q 2541 3569 2628 3553 
L 2631 2963 
z
" transform="scale(0.015625)"/>
       <path id="DejaVuSans-79" d="M 2059 -325 
Q 1816 -950 1584 -1140 
Q 1353 -1331 966 -1331 
L 506 -1331 
L 506 -850 
L 844 -850 
Q 1081 -850 1212 -737 
Q 1344 -625 1503 -206 
L 1606 56 
L 191 3500 
L 800 3500 
L 1894 763 
L 2988 3500 
L 3597 3500 
L 2059 -325 
z
" transform="scale(0.015625)"/>
      </defs>
      <use xlink:href="#DejaVuSans-61"/>
      <use xlink:href="#DejaVuSans-63" transform="translate(61.279297 0)"/>
      <use xlink:href="#DejaVuSans-63" transform="translate(116.259766 0)"/>
      <use xlink:href="#DejaVuSans-75" transform="translate(171.240234 0)"/>
      <use xlink:href="#DejaVuSans-72" transform="translate(234.619141 0)"/>
      <use xlink:href="#DejaVuSans-61" transform="translate(275.732422 0)"/>
      <use xlink:href="#DejaVuSans-63" transform="translate(337.011719 0)"/>
      <use xlink:href="#DejaVuSans-79" transform="translate(391.992188 0)"/>
     </g>
    </g>
   </g>
   <g id="line2d_19">
    <path d="M 77.255455 194.879125 
L 85.173682 186.159064 
L 85.822717 170.796164 
L 86.341945 126.367044 
L 86.99098 141.314887 
L 87.250594 129.273084 
L 87.769822 137.993144 
L 88.029436 125.536285 
L 88.678471 127.197156 
L 88.938085 134.256345 
L 89.197699 125.121228 
L 89.457313 130.518899 
L 89.976541 124.706172 
L 90.365962 126.367044 
L 90.625576 125.121228 
L 91.144804 125.536285 
L 91.404418 124.290469 
L 91.923647 124.706172 
L 93.611138 124.706172 
L 94.130366 125.536285 
L 94.38998 124.290469 
L 94.909208 124.290469 
L 95.817857 124.706172 
L 96.207278 125.121228 
L 96.726506 125.121228 
L 97.115927 124.290469 
L 97.764962 125.536285 
L 98.413997 124.706172 
L 98.673611 124.706172 
L 99.192839 125.536285 
L 99.452453 125.121228 
L 101.529365 125.121228 
L 102.1784 124.706172 
L 102.957242 125.121228 
L 103.606277 124.290469 
L 103.865891 125.121228 
L 104.125505 125.121228 
L 104.514926 124.290469 
L 105.293768 125.536285 
L 105.683189 125.536285 
L 105.942803 123.875413 
L 106.202417 124.706172 
L 106.591838 124.706172 
L 107.111067 124.290469 
L 107.370681 124.290469 
L 108.019716 123.875413 
L 108.27933 123.045301 
L 108.668751 124.706172 
L 109.187979 123.045301 
L 109.707207 124.706172 
L 109.966821 123.875413 
L 110.356242 123.460357 
L 110.615856 123.460357 
L 110.87547 123.875413 
L 111.524505 123.875413 
L 112.17354 123.460357 
L 112.433154 123.875413 
L 112.952382 123.875413 
L 113.601417 122.629598 
L 113.861031 123.875413 
L 114.120645 123.045301 
L 114.510066 122.629598 
L 114.76968 122.629598 
L 115.029294 123.045301 
L 115.418715 122.629598 
L 115.937943 122.629598 
L 116.327364 121.799485 
L 116.716785 121.799485 
L 117.625434 123.045301 
L 117.885048 122.214542 
L 118.144662 122.629598 
L 118.404276 122.629598 
L 118.793697 121.799485 
L 119.053311 123.045301 
L 119.442732 123.045301 
L 119.702346 122.214542 
L 120.091767 123.045301 
L 120.351381 123.045301 
L 120.740802 121.383783 
L 121.000416 121.799485 
L 121.389837 120.968726 
L 121.779259 122.214542 
L 122.16868 121.799485 
L 122.558101 121.799485 
L 122.817715 122.214542 
L 123.207136 121.799485 
L 123.726364 121.799485 
L 124.115785 120.968726 
L 124.375399 121.383783 
L 124.76482 121.383783 
L 125.024434 120.968726 
L 125.413855 120.968726 
L 125.673469 121.383783 
L 126.06289 120.138614 
L 126.841732 119.722911 
L 128.139802 120.968726 
L 129.308065 120.968726 
L 129.697486 119.722911 
L 130.086907 119.722911 
L 130.476328 121.383783 
L 130.735942 120.55367 
L 131.514784 120.55367 
L 132.163819 117.646983 
L 132.942661 120.55367 
L 133.332082 119.722911 
L 133.85131 118.892799 
L 134.240731 119.722911 
L 134.630152 120.138614 
L 135.14938 120.138614 
L 135.668608 118.06204 
L 136.836872 118.06204 
L 137.745521 118.892799 
L 138.394556 119.722911 
L 139.173398 120.138614 
L 139.822433 119.307855 
L 140.731082 119.307855 
L 141.380117 118.06204 
L 141.769538 118.477742 
L 142.029152 118.477742 
L 142.288766 117.646983 
L 142.937801 117.646983 
L 143.586836 118.477742 
L 144.235871 116.816871 
L 144.884906 117.646983 
L 145.14452 117.231927 
L 147.221432 117.231927 
L 147.870467 116.816871 
L 149.168537 116.816871 
L 149.947379 116.401168 
L 150.206993 118.477742 
L 150.596414 116.816871 
L 151.115642 115.986112 
L 151.505063 115.986112 
L 151.894485 118.477742 
L 152.154099 118.477742 
L 152.413713 117.646983 
L 153.192555 115.571056 
L 153.581976 115.571056 
L 153.971397 115.986112 
L 154.750239 115.986112 
L 155.529081 116.401168 
L 156.697344 116.401168 
L 157.086765 117.646983 
L 157.476186 118.06204 
L 158.125221 115.155999 
L 159.682905 115.155999 
L 159.942519 114.740297 
L 160.851168 114.740297 
L 161.759817 113.495128 
L 162.019431 113.495128 
L 162.408852 113.910184 
L 162.668466 114.740297 
L 163.447308 114.32524 
L 164.096343 114.32524 
L 164.745378 115.571056 
L 165.134799 112.664369 
L 165.783834 112.664369 
L 166.432869 114.32524 
L 167.081905 114.32524 
L 167.73094 113.495128 
L 168.509782 113.495128 
L 168.769396 112.249313 
L 169.158817 112.249313 
L 169.678045 112.664369 
L 170.067466 112.664369 
L 170.456887 115.155999 
L 170.976115 113.910184 
L 171.62515 115.155999 
L 171.884764 114.32524 
L 172.274185 112.249313 
L 172.663606 114.740297 
L 172.92322 111.418554 
L 174.870325 111.418554 
L 175.51936 113.910184 
L 175.908781 113.079425 
L 176.298202 113.079425 
L 176.687623 113.495128 
L 177.077044 111.83361 
L 177.596272 112.249313 
L 177.985693 112.249313 
L 178.504921 111.83361 
L 179.153956 112.249313 
L 179.543377 111.418554 
L 182.788553 111.418554 
L 183.567395 112.249313 
L 183.827009 111.83361 
L 184.21643 111.83361 
L 184.476044 111.003497 
L 184.865465 111.003497 
L 185.254886 111.418554 
L 185.644307 111.418554 
L 186.033728 111.003497 
L 186.293342 111.003497 
L 186.81257 111.83361 
L 187.591412 111.83361 
L 188.240447 111.418554 
L 190.187552 111.418554 
L 190.966394 110.588441 
L 191.355815 111.418554 
L 192.00485 111.003497 
L 193.30292 111.003497 
L 193.951955 110.172738 
L 194.341376 111.003497 
L 194.730797 110.588441 
L 195.120218 110.588441 
L 195.509639 111.83361 
L 196.028867 109.342626 
L 196.937517 109.342626 
L 197.586552 110.172738 
L 198.235587 109.757682 
L 198.884622 107.266698 
L 199.144236 108.92757 
L 199.793271 108.92757 
L 200.312499 109.757682 
L 201.480762 109.757682 
L 201.99999 108.511867 
L 202.649025 109.342626 
L 203.29806 109.342626 
L 203.817288 107.681754 
L 204.206709 109.342626 
L 204.466323 104.775068 
L 204.985551 106.850995 
L 205.374972 106.850995 
L 205.634586 105.605827 
L 206.024007 108.096811 
L 206.413428 101.868381 
L 208.879761 101.868381 
L 209.528796 104.775068 
L 209.918217 100.622565 
L 210.567252 101.038268 
L 210.956673 100.622565 
L 211.735515 100.622565 
L 211.99513 99.792453 
L 212.384551 99.792453 
L 212.644165 95.639951 
L 213.2932 95.639951 
L 213.682621 96.885766 
L 214.850884 96.885766 
L 215.499919 95.224895 
L 217.447024 95.224895 
L 218.096059 93.564023 
L 218.874901 93.564023 
L 219.394129 92.733264 
L 219.653743 92.733264 
L 220.043164 93.148967 
L 221.730655 93.148967 
L 222.37969 90.657336 
L 223.028725 90.657336 
L 223.418146 86.089778 
L 224.326795 86.089778 
L 224.716216 93.564023 
L 225.105637 93.564023 
L 225.495058 88.581409 
L 225.884479 88.581409 
L 226.403707 88.166352 
L 227.18255 88.166352 
L 227.571971 91.903152 
L 227.961392 91.903152 
L 228.350813 93.979079 
L 229.129655 93.979079 
L 229.77869 86.920537 
L 230.557532 86.920537 
L 230.946953 89.411521 
L 231.985409 89.411521 
L 232.37483 81.937923 
L 232.764251 86.920537 
L 233.153672 90.24228 
L 233.543093 90.24228 
L 233.932514 88.581409 
L 234.581549 84.01385 
L 235.230584 84.01385 
L 235.879619 81.107164 
L 240.033443 81.107164 
L 240.682478 84.428907 
L 241.46132 84.428907 
L 241.980549 85.259666 
L 242.629584 85.259666 
L 243.148812 82.352979 
L 243.927654 81.107164 
L 244.576689 76.539605 
L 244.836303 86.505481 
L 245.615145 79.861348 
L 253.663179 79.861348 
L 254.312214 80.277051 
L 254.831442 80.277051 
L 255.220863 76.955308 
L 255.740091 77.785421 
L 256.64874 77.785421 
L 257.167969 74.463678 
L 257.946811 74.463678 
L 258.595846 78.200477 
L 258.985267 78.200477 
L 259.504495 79.446292 
L 262.490056 79.446292 
L 262.879477 79.031236 
L 264.566968 79.031236 
L 264.956389 79.446292 
L 265.735231 79.446292 
L 266.124652 80.277051 
L 266.514073 81.52222 
L 267.422722 81.52222 
L 267.812143 83.183091 
L 268.590985 83.183091 
L 269.110213 78.200477 
L 269.369827 79.861348 
L 270.278476 79.861348 
L 270.667897 69.481063 
L 272.355389 69.481063 
L 272.74481 65.744264 
L 273.134231 65.744264 
L 273.523652 68.650304 
L 274.821722 68.650304 
L 275.211143 69.481063 
L 275.600564 54.948276 
L 276.379406 77.785421 
L 277.547669 77.785421 
L 278.066897 57.43926 
L 278.586125 56.194091 
L 279.884195 56.194091 
L 280.53323 54.532573 
L 282.350528 54.532573 
L 283.12937 66.15932 
L 283.908212 66.15932 
L 284.42744 66.574376 
L 288.711072 66.574376 
L 289.489914 59.93089 
L 289.879335 59.93089 
L 290.398563 66.989433 
L 290.917791 70.311176 
L 291.307212 66.989433 
L 291.696633 61.591762 
L 292.735089 61.591762 
L 293.254317 66.15932 
L 294.162966 66.15932 
L 294.682194 60.345947 
L 300.653316 60.345947 
L 301.302351 57.024204 
L 302.730229 57.024204 
L 303.11965 57.854963 
L 303.898492 57.854963 
L 304.547527 53.702461 
L 305.066755 67.405135 
L 305.71579 67.405135 
L 306.235018 64.082746 
L 306.754246 58.685075 
L 308.960965 58.685075 
L 309.350386 59.100131 
L 311.557105 59.100131 
L 312.335947 50.795774 
L 317.138807 50.795774 
L 317.787842 60.761003 
L 319.60514 60.761003 
L 319.994561 58.685075 
L 320.773403 61.176706 
L 321.292631 61.176706 
L 321.682052 57.43926 
L 325.316648 57.43926 
L 325.965683 62.006818 
L 327.782981 62.006818 
L 328.172402 55.778388 
L 328.69163 52.871702 
L 329.340665 50.380718 
L 335.311788 50.380718 
L 336.09063 57.854963 
L 341.153103 57.854963 
L 341.672331 55.363332 
L 343.100208 55.363332 
L 343.619436 56.609147 
L 353.744383 56.609147 
L 354.523225 48.719846 
L 362.701067 48.719846 
L 363.350102 55.363332 
L 368.412575 55.363332 
L 368.801996 58.270019 
L 376.460609 58.270019 
L 376.85003 52.871702 
L 379.316364 52.871702 
L 384.119223 51.626533 
L 408.912362 51.626533 
L 409.561397 61.176706 
L 413.585414 61.176706 
L 414.234449 59.100131 
L 418.388273 59.100131 
L 418.907501 57.854963 
L 421.373834 57.854963 
L 421.893062 46.643918 
L 422.412291 55.778388 
L 424.229589 55.778388 
L 424.748817 47.889087 
L 425.268045 48.719846 
L 429.551676 48.719846 
L 429.941097 47.474031 
L 433.056465 47.474031 
L 433.7055 46.643918 
L 439.417009 46.643918 
L 439.936237 55.363332 
L 443.570833 55.363332 
L 444.090061 58.270019 
L 445.647745 58.270019 
L 446.166973 49.134902 
L 449.541955 49.134902 
L 450.450604 51.21083 
L 464.08034 51.21083 
L 465.118796 48.30479 
L 467.844744 48.30479 
L 468.493779 47.474031 
L 471.219726 47.474031 
L 471.738954 48.30479 
L 490.171549 48.30479 
L 491.080198 49.965661 
L 492.118654 49.965661 
L 492.637882 50.795774 
L 496.012864 50.795774 
L 496.532092 46.228216 
L 501.075338 46.228216 
L 501.594566 48.30479 
L 502.113794 41.660657 
L 504.580127 41.660657 
L 505.358969 50.380718 
L 507.435881 50.380718 
L 508.084916 42.906473 
L 508.604144 42.906473 
L 509.253179 47.889087 
L 522.23388 47.889087 
L 523.272336 42.07636 
L 526.777125 42.07636 
L 527.296353 44.152288 
L 532.748248 44.152288 
L 533.397283 42.491416 
L 535.214581 42.491416 
L 535.863616 45.398103 
L 537.031879 45.398103 
L 537.551107 44.152288 
L 541.964545 44.152288 
L 541.964545 44.152288 
" clip-path="url(#p39a2cee8c5)" style="fill: none; stroke: #32746d; stroke-width: 1.5; stroke-linecap: square"/>
   </g>
   <g id="line2d_20">
    <path d="M 77.255455 197.896364 
L 85.822717 197.896364 
L 86.341945 169.642799 
L 86.99098 171.304964 
L 87.250594 182.938823 
L 87.510208 172.967128 
L 87.769822 171.304964 
L 88.029436 167.981281 
L 88.678471 189.586834 
L 88.938085 171.304964 
L 89.197699 174.628646 
L 89.457313 167.981281 
L 89.976541 169.642799 
L 90.365962 169.642799 
L 90.625576 167.981281 
L 91.144804 174.628646 
L 91.404418 166.319117 
L 92.442875 166.319117 
L 92.962103 164.656952 
L 93.611138 164.656952 
L 94.130366 166.319117 
L 94.38998 164.656952 
L 94.909208 164.656952 
L 95.817857 166.319117 
L 96.207278 164.656952 
L 96.726506 166.319117 
L 97.115927 164.656952 
L 97.764962 164.656952 
L 98.413997 166.319117 
L 98.673611 164.656952 
L 99.192839 167.981281 
L 99.452453 164.656952 
L 102.1784 164.656952 
L 102.957242 161.33327 
L 103.606277 166.319117 
L 103.865891 164.656952 
L 104.514926 164.656952 
L 104.77454 162.995434 
L 105.034154 164.656952 
L 105.293768 164.656952 
L 105.683189 169.642799 
L 105.942803 167.981281 
L 106.202417 164.656952 
L 106.591838 161.33327 
L 107.111067 164.656952 
L 107.370681 161.33327 
L 108.019716 164.656952 
L 108.928365 164.656952 
L 109.187979 162.995434 
L 109.447593 162.995434 
L 109.707207 164.656952 
L 109.966821 162.995434 
L 110.356242 164.656952 
L 110.615856 162.995434 
L 110.87547 162.995434 
L 111.135084 164.656952 
L 111.524505 159.671105 
L 112.17354 164.656952 
L 112.692768 164.656952 
L 112.952382 162.995434 
L 113.211996 162.995434 
L 113.601417 164.656952 
L 113.861031 164.656952 
L 114.120645 162.995434 
L 114.510066 164.656952 
L 114.76968 164.656952 
L 115.029294 162.995434 
L 115.418715 159.671105 
L 115.937943 164.656952 
L 116.327364 162.995434 
L 116.716785 162.995434 
L 116.976399 161.33327 
L 117.236013 162.995434 
L 117.625434 162.995434 
L 117.885048 161.33327 
L 118.144662 162.995434 
L 118.404276 162.995434 
L 118.793697 161.33327 
L 119.053311 162.995434 
L 119.442732 164.656952 
L 119.702346 162.995434 
L 120.351381 162.995434 
L 120.740802 164.656952 
L 121.000416 162.995434 
L 121.389837 161.33327 
L 122.558101 161.33327 
L 122.817715 162.995434 
L 123.207136 166.319117 
L 123.46675 164.656952 
L 124.115785 164.656952 
L 124.375399 161.33327 
L 125.413855 161.33327 
L 125.673469 162.995434 
L 126.06289 159.671105 
L 126.841732 159.671105 
L 127.750381 161.33327 
L 128.139802 164.656952 
L 128.529223 159.671105 
L 129.308065 164.656952 
L 130.086907 164.656952 
L 130.735942 159.671105 
L 132.163819 159.671105 
L 132.942661 161.33327 
L 133.332082 159.671105 
L 133.85131 161.33327 
L 134.240731 161.33327 
L 134.630152 159.671105 
L 136.836872 159.671105 
L 137.3561 161.33327 
L 138.134942 161.33327 
L 138.394556 159.671105 
L 139.173398 158.009587 
L 139.822433 161.33327 
L 140.211854 158.009587 
L 140.731082 158.009587 
L 141.380117 161.33327 
L 142.029152 161.33327 
L 142.288766 156.347423 
L 144.235871 156.347423 
L 144.884906 158.009587 
L 145.14452 156.347423 
L 149.168537 156.347423 
L 149.947379 159.671105 
L 150.206993 162.995434 
L 150.596414 154.685258 
L 151.115642 156.347423 
L 151.505063 156.347423 
L 151.894485 159.671105 
L 152.154099 159.671105 
L 152.413713 154.685258 
L 153.192555 156.347423 
L 153.581976 156.347423 
L 153.971397 154.685258 
L 154.750239 154.685258 
L 155.529081 156.347423 
L 157.086765 156.347423 
L 157.476186 154.685258 
L 158.125221 153.023094 
L 158.904063 154.685258 
L 160.851168 154.685258 
L 161.110782 151.361576 
L 161.759817 153.023094 
L 162.019431 154.685258 
L 162.408852 154.685258 
L 162.668466 151.361576 
L 164.096343 151.361576 
L 164.745378 153.023094 
L 165.134799 151.361576 
L 167.081905 151.361576 
L 167.73094 148.037247 
L 168.509782 151.361576 
L 168.769396 154.685258 
L 169.158817 149.699411 
L 169.678045 151.361576 
L 170.067466 151.361576 
L 170.456887 154.685258 
L 170.976115 148.037247 
L 171.62515 151.361576 
L 172.274185 151.361576 
L 172.663606 158.009587 
L 172.92322 146.375729 
L 174.870325 146.375729 
L 175.51936 151.361576 
L 176.298202 151.361576 
L 176.687623 149.699411 
L 177.077044 146.375729 
L 177.596272 148.037247 
L 177.985693 148.037247 
L 178.504921 146.375729 
L 179.153956 148.037247 
L 179.543377 144.713564 
L 180.841447 144.713564 
L 181.620289 143.0514 
L 182.269325 151.361576 
L 182.788553 143.0514 
L 183.567395 149.699411 
L 183.827009 144.713564 
L 184.21643 148.037247 
L 184.476044 144.713564 
L 184.865465 144.713564 
L 185.254886 146.375729 
L 186.293342 146.375729 
L 186.81257 143.0514 
L 190.187552 143.0514 
L 190.966394 146.375729 
L 191.355815 143.0514 
L 192.00485 143.0514 
L 192.653885 141.389882 
L 193.30292 141.389882 
L 193.951955 143.0514 
L 195.509639 143.0514 
L 196.028867 141.389882 
L 197.586552 141.389882 
L 198.235587 139.727717 
L 198.884622 143.0514 
L 199.144236 139.727717 
L 202.649025 139.727717 
L 203.29806 134.74187 
L 203.817288 136.404035 
L 204.206709 136.404035 
L 204.466323 133.079706 
L 204.985551 136.404035 
L 205.374972 136.404035 
L 205.634586 139.727717 
L 206.024007 134.74187 
L 207.322077 134.74187 
L 207.711498 126.431694 
L 208.879761 126.431694 
L 209.528796 133.079706 
L 209.918217 126.431694 
L 210.567252 128.093859 
L 211.99513 128.093859 
L 212.384551 131.417541 
L 212.644165 134.74187 
L 213.2932 134.74187 
L 213.682621 126.431694 
L 214.850884 126.431694 
L 215.499919 98.178776 
L 217.447024 98.178776 
L 218.096059 113.136317 
L 218.874901 113.136317 
L 219.394129 109.811988 
L 219.653743 109.811988 
L 220.043164 88.206436 
L 221.730655 88.206436 
L 222.37969 98.178776 
L 223.028725 98.178776 
L 223.418146 106.488306 
L 224.326795 106.488306 
L 224.716216 99.840294 
L 225.105637 99.840294 
L 225.495058 89.8686 
L 225.884479 89.8686 
L 226.403707 94.854447 
L 227.18255 94.854447 
L 227.571971 96.516612 
L 227.961392 96.516612 
L 228.350813 81.559071 
L 229.129655 81.559071 
L 229.77869 91.530765 
L 230.557532 91.530765 
L 230.946953 99.840294 
L 231.466181 91.530765 
L 232.37483 91.530765 
L 232.764251 88.206436 
L 233.543093 88.206436 
L 233.932514 79.896906 
L 235.230584 79.896906 
L 235.879619 76.573224 
L 240.033443 76.573224 
L 240.682478 78.234742 
L 241.46132 78.234742 
L 241.980549 74.911059 
L 243.148812 74.911059 
L 243.927654 68.263048 
L 244.576689 74.911059 
L 244.836303 73.248895 
L 245.225724 69.925212 
L 245.615145 56.629189 
L 253.663179 56.629189 
L 254.312214 76.573224 
L 254.831442 76.573224 
L 255.220863 73.248895 
L 255.740091 61.615036 
L 256.64874 61.615036 
L 257.167969 64.939365 
L 257.946811 64.939365 
L 258.595846 69.925212 
L 258.985267 69.925212 
L 259.504495 78.234742 
L 262.490056 78.234742 
L 262.879477 76.573224 
L 264.566968 76.573224 
L 264.956389 71.58673 
L 265.735231 71.58673 
L 266.124652 73.248895 
L 266.514073 68.263048 
L 267.422722 68.263048 
L 267.812143 69.925212 
L 268.590985 69.925212 
L 269.110213 66.600883 
L 269.369827 71.58673 
L 270.278476 71.58673 
L 270.667897 61.615036 
L 272.355389 61.615036 
L 272.74481 58.291354 
L 273.134231 58.291354 
L 273.523652 64.939365 
L 274.821722 64.939365 
L 275.211143 59.953518 
L 275.600564 51.643342 
L 276.379406 61.615036 
L 277.547669 61.615036 
L 278.066897 46.657495 
L 279.884195 46.657495 
L 280.53323 40.009483 
L 282.350528 40.009483 
L 283.12937 48.319659 
L 283.908212 48.319659 
L 284.42744 40.009483 
L 288.711072 40.009483 
L 289.489914 46.657495 
L 289.879335 46.657495 
L 290.398563 54.967671 
L 290.917791 48.319659 
L 292.735089 48.319659 
L 293.254317 49.981177 
L 294.162966 49.981177 
L 294.682194 38.347965 
L 300.653316 38.347965 
L 301.302351 48.319659 
L 302.730229 48.319659 
L 303.11965 38.347965 
L 303.898492 38.347965 
L 305.066755 54.967671 
L 305.71579 54.967671 
L 306.754246 48.319659 
L 308.960965 48.319659 
L 309.350386 38.347965 
L 311.557105 38.347965 
L 312.335947 36.685801 
L 317.138807 36.685801 
L 317.787842 43.333812 
L 319.60514 43.333812 
L 319.994561 48.319659 
L 320.773403 63.277201 
L 321.292631 63.277201 
L 321.682052 36.685801 
L 325.316648 36.685801 
L 325.965683 46.657495 
L 327.782981 46.657495 
L 328.172402 44.99533 
L 328.69163 36.685801 
L 335.311788 36.685801 
L 336.09063 56.629189 
L 341.153103 56.629189 
L 341.672331 44.99533 
L 343.100208 44.99533 
L 343.619436 36.685801 
L 362.701067 36.685801 
L 363.350102 44.99533 
L 368.412575 44.99533 
L 368.801996 41.671648 
L 376.460609 41.671648 
L 376.85003 36.685801 
L 379.316364 36.685801 
L 384.119223 43.333812 
L 408.912362 43.333812 
L 409.561397 46.657495 
L 413.585414 46.657495 
L 414.234449 48.319659 
L 418.388273 48.319659 
L 418.907501 41.671648 
L 421.373834 41.671648 
L 421.893062 38.347965 
L 422.412291 58.291354 
L 424.229589 58.291354 
L 425.268045 38.347965 
L 429.551676 38.347965 
L 429.941097 53.305507 
L 433.056465 53.305507 
L 433.7055 44.99533 
L 439.417009 44.99533 
L 439.936237 41.671648 
L 443.570833 41.671648 
L 444.090061 53.305507 
L 445.647745 53.305507 
L 446.166973 36.685801 
L 464.08034 36.685801 
L 465.118796 53.305507 
L 467.844744 53.305507 
L 468.493779 38.347965 
L 471.219726 38.347965 
L 471.738954 36.685801 
L 490.171549 36.685801 
L 491.080198 40.009483 
L 492.118654 40.009483 
L 492.637882 48.319659 
L 495.493636 48.319659 
L 496.012864 51.643342 
L 496.532092 53.305507 
L 501.075338 53.305507 
L 501.594566 38.347965 
L 502.113794 36.685801 
L 504.580127 36.685801 
L 505.358969 38.347965 
L 507.435881 38.347965 
L 508.084916 48.319659 
L 508.604144 48.319659 
L 509.253179 35.023636 
L 522.23388 35.023636 
L 523.272336 40.009483 
L 526.777125 40.009483 
L 527.296353 38.347965 
L 532.748248 38.347965 
L 533.397283 46.657495 
L 535.214581 46.657495 
L 535.863616 36.685801 
L 537.031879 36.685801 
L 537.551107 35.023636 
L 541.964545 35.023636 
L 541.964545 35.023636 
" clip-path="url(#p39a2cee8c5)" style="fill: none; stroke: #4c5f99; stroke-width: 1.5; stroke-linecap: square"/>
   </g>
   <g id="patch_3">
    <path d="M 54.02 206.04 
L 54.02 26.88 
" style="fill: none; stroke: #000000; stroke-width: 0.8; stroke-linejoin: miter; stroke-linecap: square"/>
   </g>
   <g id="patch_4">
    <path d="M 565.2 206.04 
L 565.2 26.88 
" style="fill: none; stroke: #000000; stroke-width: 0.8; stroke-linejoin: miter; stroke-linecap: square"/>
   </g>
   <g id="patch_5">
    <path d="M 54.02 206.04 
L 565.2 206.04 
" style="fill: none; stroke: #000000; stroke-width: 0.8; stroke-linejoin: miter; stroke-linecap: square"/>
   </g>
   <g id="patch_6">
    <path d="M 54.02 26.88 
L 565.2 26.88 
" style="fill: none; stroke: #000000; stroke-width: 0.8; stroke-linejoin: miter; stroke-linecap: square"/>
   </g>
   <g id="text_15">
    <!-- Unit 14 GA PPO Action Clone -->
    <g transform="translate(223.702188 20.88) scale(0.12 -0.12)">
     <defs>
      <path id="DejaVuSans-55" d="M 556 4666 
L 1191 4666 
L 1191 1831 
Q 1191 1081 1462 751 
Q 1734 422 2344 422 
Q 2950 422 3222 751 
Q 3494 1081 3494 1831 
L 3494 4666 
L 4128 4666 
L 4128 1753 
Q 4128 841 3676 375 
Q 3225 -91 2344 -91 
Q 1459 -91 1007 375 
Q 556 841 556 1753 
L 556 4666 
z
" transform="scale(0.015625)"/>
      <path id="DejaVuSans-6e" d="M 3513 2113 
L 3513 0 
L 2938 0 
L 2938 2094 
Q 2938 2591 2744 2837 
Q 2550 3084 2163 3084 
Q 1697 3084 1428 2787 
Q 1159 2491 1159 1978 
L 1159 0 
L 581 0 
L 581 3500 
L 1159 3500 
L 1159 2956 
Q 1366 3272 1645 3428 
Q 1925 3584 2291 3584 
Q 2894 3584 3203 3211 
Q 3513 2838 3513 2113 
z
" transform="scale(0.015625)"/>
      <path id="DejaVuSans-69" d="M 603 3500 
L 1178 3500 
L 1178 0 
L 603 0 
L 603 3500 
z
M 603 4863 
L 1178 4863 
L 1178 4134 
L 603 4134 
L 603 4863 
z
" transform="scale(0.015625)"/>
      <path id="DejaVuSans-74" d="M 1172 4494 
L 1172 3500 
L 2356 3500 
L 2356 3053 
L 1172 3053 
L 1172 1153 
Q 1172 725 1289 603 
Q 1406 481 1766 481 
L 2356 481 
L 2356 0 
L 1766 0 
Q 1100 0 847 248 
Q 594 497 594 1153 
L 594 3053 
L 172 3053 
L 172 3500 
L 594 3500 
L 594 4494 
L 1172 4494 
z
" transform="scale(0.015625)"/>
      <path id="DejaVuSans-20" transform="scale(0.015625)"/>
      <path id="DejaVuSans-47" d="M 3809 666 
L 3809 1919 
L 2778 1919 
L 2778 2438 
L 4434 2438 
L 4434 434 
Q 4069 175 3628 42 
Q 3188 -91 2688 -91 
Q 1594 -91 976 548 
Q 359 1188 359 2328 
Q 359 3472 976 4111 
Q 1594 4750 2688 4750 
Q 3144 4750 3555 4637 
Q 3966 4525 4313 4306 
L 4313 3634 
Q 3963 3931 3569 4081 
Q 3175 4231 2741 4231 
Q 1884 4231 1454 3753 
Q 1025 3275 1025 2328 
Q 1025 1384 1454 906 
Q 1884 428 2741 428 
Q 3075 428 3337 486 
Q 3600 544 3809 666 
z
" transform="scale(0.015625)"/>
      <path id="DejaVuSans-41" d="M 2188 4044 
L 1331 1722 
L 3047 1722 
L 2188 4044 
z
M 1831 4666 
L 2547 4666 
L 4325 0 
L 3669 0 
L 3244 1197 
L 1141 1197 
L 716 0 
L 50 0 
L 1831 4666 
z
" transform="scale(0.015625)"/>
      <path id="DejaVuSans-50" d="M 1259 4147 
L 1259 2394 
L 2053 2394 
Q 2494 2394 2734 2622 
Q 2975 2850 2975 3272 
Q 2975 3691 2734 3919 
Q 2494 4147 2053 4147 
L 1259 4147 
z
M 628 4666 
L 2053 4666 
Q 2838 4666 3239 4311 
Q 3641 3956 3641 3272 
Q 3641 2581 3239 2228 
Q 2838 1875 2053 1875 
L 1259 1875 
L 1259 0 
L 628 0 
L 628 4666 
z
" transform="scale(0.015625)"/>
      <path id="DejaVuSans-4f" d="M 2522 4238 
Q 1834 4238 1429 3725 
Q 1025 3213 1025 2328 
Q 1025 1447 1429 934 
Q 1834 422 2522 422 
Q 3209 422 3611 934 
Q 4013 1447 4013 2328 
Q 4013 3213 3611 3725 
Q 3209 4238 2522 4238 
z
M 2522 4750 
Q 3503 4750 4090 4092 
Q 4678 3434 4678 2328 
Q 4678 1225 4090 567 
Q 3503 -91 2522 -91 
Q 1538 -91 948 565 
Q 359 1222 359 2328 
Q 359 3434 948 4092 
Q 1538 4750 2522 4750 
z
" transform="scale(0.015625)"/>
      <path id="DejaVuSans-6f" d="M 1959 3097 
Q 1497 3097 1228 2736 
Q 959 2375 959 1747 
Q 959 1119 1226 758 
Q 1494 397 1959 397 
Q 2419 397 2687 759 
Q 2956 1122 2956 1747 
Q 2956 2369 2687 2733 
Q 2419 3097 1959 3097 
z
M 1959 3584 
Q 2709 3584 3137 3096 
Q 3566 2609 3566 1747 
Q 3566 888 3137 398 
Q 2709 -91 1959 -91 
Q 1206 -91 779 398 
Q 353 888 353 1747 
Q 353 2609 779 3096 
Q 1206 3584 1959 3584 
z
" transform="scale(0.015625)"/>
      <path id="DejaVuSans-43" d="M 4122 4306 
L 4122 3641 
Q 3803 3938 3442 4084 
Q 3081 4231 2675 4231 
Q 1875 4231 1450 3742 
Q 1025 3253 1025 2328 
Q 1025 1406 1450 917 
Q 1875 428 2675 428 
Q 3081 428 3442 575 
Q 3803 722 4122 1019 
L 4122 359 
Q 3791 134 3420 21 
Q 3050 -91 2638 -91 
Q 1578 -91 968 557 
Q 359 1206 359 2328 
Q 359 3453 968 4101 
Q 1578 4750 2638 4750 
Q 3056 4750 3426 4639 
Q 3797 4528 4122 4306 
z
" transform="scale(0.015625)"/>
      <path id="DejaVuSans-6c" d="M 603 4863 
L 1178 4863 
L 1178 0 
L 603 0 
L 603 4863 
z
" transform="scale(0.015625)"/>
      <path id="DejaVuSans-65" d="M 3597 1894 
L 3597 1613 
L 953 1613 
Q 991 1019 1311 708 
Q 1631 397 2203 397 
Q 2534 397 2845 478 
Q 3156 559 3463 722 
L 3463 178 
Q 3153 47 2828 -22 
Q 2503 -91 2169 -91 
Q 1331 -91 842 396 
Q 353 884 353 1716 
Q 353 2575 817 3079 
Q 1281 3584 2069 3584 
Q 2775 3584 3186 3129 
Q 3597 2675 3597 1894 
z
M 3022 2063 
Q 3016 2534 2758 2815 
Q 2500 3097 2075 3097 
Q 1594 3097 1305 2825 
Q 1016 2553 972 2059 
L 3022 2063 
z
" transform="scale(0.015625)"/>
     </defs>
     <use xlink:href="#DejaVuSans-55"/>
     <use xlink:href="#DejaVuSans-6e" transform="translate(73.193359 0)"/>
     <use xlink:href="#DejaVuSans-69" transform="translate(136.572266 0)"/>
     <use xlink:href="#DejaVuSans-74" transform="translate(164.355469 0)"/>
     <use xlink:href="#DejaVuSans-20" transform="translate(203.564453 0)"/>
     <use xlink:href="#DejaVuSans-31" transform="translate(235.351562 0)"/>
     <use xlink:href="#DejaVuSans-34" transform="translate(298.974609 0)"/>
     <use xlink:href="#DejaVuSans-20" transform="translate(362.597656 0)"/>
     <use xlink:href="#DejaVuSans-47" transform="translate(394.384766 0)"/>
     <use xlink:href="#DejaVuSans-41" transform="translate(471.875 0)"/>
     <use xlink:href="#DejaVuSans-20" transform="translate(540.283203 0)"/>
     <use xlink:href="#DejaVuSans-50" transform="translate(572.070312 0)"/>
     <use xlink:href="#DejaVuSans-50" transform="translate(632.373047 0)"/>
     <use xlink:href="#DejaVuSans-4f" transform="translate(692.675781 0)"/>
     <use xlink:href="#DejaVuSans-20" transform="translate(771.386719 0)"/>
     <use xlink:href="#DejaVuSans-41" transform="translate(803.173828 0)"/>
     <use xlink:href="#DejaVuSans-63" transform="translate(869.832031 0)"/>
     <use xlink:href="#DejaVuSans-74" transform="translate(924.8125 0)"/>
     <use xlink:href="#DejaVuSans-69" transform="translate(964.021484 0)"/>
     <use xlink:href="#DejaVuSans-6f" transform="translate(991.804688 0)"/>
     <use xlink:href="#DejaVuSans-6e" transform="translate(1052.986328 0)"/>
     <use xlink:href="#DejaVuSans-20" transform="translate(1116.365234 0)"/>
     <use xlink:href="#DejaVuSans-43" transform="translate(1148.152344 0)"/>
     <use xlink:href="#DejaVuSans-6c" transform="translate(1217.976562 0)"/>
     <use xlink:href="#DejaVuSans-6f" transform="translate(1245.759766 0)"/>
     <use xlink:href="#DejaVuSans-6e" transform="translate(1306.941406 0)"/>
     <use xlink:href="#DejaVuSans-65" transform="translate(1370.320312 0)"/>
    </g>
   </g>
   <g id="legend_1">
    <g id="patch_7">
     <path d="M 61.02 64.23625 
L 164.591875 64.23625 
Q 166.591875 64.23625 166.591875 62.23625 
L 166.591875 33.88 
Q 166.591875 31.88 164.591875 31.88 
L 61.02 31.88 
Q 59.02 31.88 59.02 33.88 
L 59.02 62.23625 
Q 59.02 64.23625 61.02 64.23625 
z
" style="fill: #ffffff; opacity: 0.8; stroke: #cccccc; stroke-linejoin: miter"/>
    </g>
    <g id="line2d_21">
     <path d="M 63.02 39.978438 
L 73.02 39.978438 
L 83.02 39.978438 
" style="fill: none; stroke: #32746d; stroke-width: 1.5; stroke-linecap: square"/>
    </g>
    <g id="text_16">
     <!-- train accuracy -->
     <g transform="translate(91.02 43.478438) scale(0.1 -0.1)">
      <use xlink:href="#DejaVuSans-74"/>
      <use xlink:href="#DejaVuSans-72" transform="translate(39.208984 0)"/>
      <use xlink:href="#DejaVuSans-61" transform="translate(80.322266 0)"/>
      <use xlink:href="#DejaVuSans-69" transform="translate(141.601562 0)"/>
      <use xlink:href="#DejaVuSans-6e" transform="translate(169.384766 0)"/>
      <use xlink:href="#DejaVuSans-20" transform="translate(232.763672 0)"/>
      <use xlink:href="#DejaVuSans-61" transform="translate(264.550781 0)"/>
      <use xlink:href="#DejaVuSans-63" transform="translate(325.830078 0)"/>
      <use xlink:href="#DejaVuSans-63" transform="translate(380.810547 0)"/>
      <use xlink:href="#DejaVuSans-75" transform="translate(435.791016 0)"/>
      <use xlink:href="#DejaVuSans-72" transform="translate(499.169922 0)"/>
      <use xlink:href="#DejaVuSans-61" transform="translate(540.283203 0)"/>
      <use xlink:href="#DejaVuSans-63" transform="translate(601.5625 0)"/>
      <use xlink:href="#DejaVuSans-79" transform="translate(656.542969 0)"/>
     </g>
    </g>
    <g id="line2d_22">
     <path d="M 63.02 54.656563 
L 73.02 54.656563 
L 83.02 54.656563 
" style="fill: none; stroke: #4c5f99; stroke-width: 1.5; stroke-linecap: square"/>
    </g>
    <g id="text_17">
     <!-- val accuracy -->
     <g transform="translate(91.02 58.156563) scale(0.1 -0.1)">
      <defs>
       <path id="DejaVuSans-76" d="M 191 3500 
L 800 3500 
L 1894 563 
L 2988 3500 
L 3597 3500 
L 2284 0 
L 1503 0 
L 191 3500 
z
" transform="scale(0.015625)"/>
      </defs>
      <use xlink:href="#DejaVuSans-76"/>
      <use xlink:href="#DejaVuSans-61" transform="translate(59.179688 0)"/>
      <use xlink:href="#DejaVuSans-6c" transform="translate(120.458984 0)"/>
      <use xlink:href="#DejaVuSans-20" transform="translate(148.242188 0)"/>
      <use xlink:href="#DejaVuSans-61" transform="translate(180.029297 0)"/>
      <use xlink:href="#DejaVuSans-63" transform="translate(241.308594 0)"/>
      <use xlink:href="#DejaVuSans-63" transform="translate(296.289062 0)"/>
      <use xlink:href="#DejaVuSans-75" transform="translate(351.269531 0)"/>
      <use xlink:href="#DejaVuSans-72" transform="translate(414.648438 0)"/>
      <use xlink:href="#DejaVuSans-61" transform="translate(455.761719 0)"/>
      <use xlink:href="#DejaVuSans-63" transform="translate(517.041016 0)"/>
      <use xlink:href="#DejaVuSans-79" transform="translate(572.021484 0)"/>
     </g>
    </g>
   </g>
  </g>
  <g id="axes_2">
   <g id="patch_8">
    <path d="M 54.02 413.08 
L 565.2 413.08 
L 565.2 233.92 
L 54.02 233.92 
z
" style="fill: #ffffff"/>
   </g>
   <g id="matplotlib.axis_3">
    <g id="xtick_9">
     <g id="line2d_23">
      <g>
       <use xlink:href="#mf08a70a2bf" x="77.255455" y="413.08" style="stroke: #000000; stroke-width: 0.8"/>
      </g>
     </g>
     <g id="text_18">
      <!-- 1000 -->
      <g transform="translate(64.530455 427.678438) scale(0.1 -0.1)">
       <use xlink:href="#DejaVuSans-31"/>
       <use xlink:href="#DejaVuSans-30" transform="translate(63.623047 0)"/>
       <use xlink:href="#DejaVuSans-30" transform="translate(127.246094 0)"/>
       <use xlink:href="#DejaVuSans-30" transform="translate(190.869141 0)"/>
      </g>
     </g>
    </g>
    <g id="xtick_10">
     <g id="line2d_24">
      <g>
       <use xlink:href="#mf08a70a2bf" x="154.70697" y="413.08" style="stroke: #000000; stroke-width: 0.8"/>
      </g>
     </g>
     <g id="text_19">
      <!-- 1001 -->
      <g transform="translate(141.98197 427.678438) scale(0.1 -0.1)">
       <use xlink:href="#DejaVuSans-31"/>
       <use xlink:href="#DejaVuSans-30" transform="translate(63.623047 0)"/>
       <use xlink:href="#DejaVuSans-30" transform="translate(127.246094 0)"/>
       <use xlink:href="#DejaVuSans-31" transform="translate(190.869141 0)"/>
      </g>
     </g>
    </g>
    <g id="xtick_11">
     <g id="line2d_25">
      <g>
       <use xlink:href="#mf08a70a2bf" x="232.158485" y="413.08" style="stroke: #000000; stroke-width: 0.8"/>
      </g>
     </g>
     <g id="text_20">
      <!-- 1002 -->
      <g transform="translate(219.433485 427.678438) scale(0.1 -0.1)">
       <use xlink:href="#DejaVuSans-31"/>
       <use xlink:href="#DejaVuSans-30" transform="translate(63.623047 0)"/>
       <use xlink:href="#DejaVuSans-30" transform="translate(127.246094 0)"/>
       <use xlink:href="#DejaVuSans-32" transform="translate(190.869141 0)"/>
      </g>
     </g>
    </g>
    <g id="xtick_12">
     <g id="line2d_26">
      <g>
       <use xlink:href="#mf08a70a2bf" x="309.61" y="413.08" style="stroke: #000000; stroke-width: 0.8"/>
      </g>
     </g>
     <g id="text_21">
      <!-- 1003 -->
      <g transform="translate(296.885 427.678438) scale(0.1 -0.1)">
       <use xlink:href="#DejaVuSans-31"/>
       <use xlink:href="#DejaVuSans-30" transform="translate(63.623047 0)"/>
       <use xlink:href="#DejaVuSans-30" transform="translate(127.246094 0)"/>
       <use xlink:href="#DejaVuSans-33" transform="translate(190.869141 0)"/>
      </g>
     </g>
    </g>
    <g id="xtick_13">
     <g id="line2d_27">
      <g>
       <use xlink:href="#mf08a70a2bf" x="387.061515" y="413.08" style="stroke: #000000; stroke-width: 0.8"/>
      </g>
     </g>
     <g id="text_22">
      <!-- 1004 -->
      <g transform="translate(374.336515 427.678438) scale(0.1 -0.1)">
       <use xlink:href="#DejaVuSans-31"/>
       <use xlink:href="#DejaVuSans-30" transform="translate(63.623047 0)"/>
       <use xlink:href="#DejaVuSans-30" transform="translate(127.246094 0)"/>
       <use xlink:href="#DejaVuSans-34" transform="translate(190.869141 0)"/>
      </g>
     </g>
    </g>
    <g id="xtick_14">
     <g id="line2d_28">
      <g>
       <use xlink:href="#mf08a70a2bf" x="464.51303" y="413.08" style="stroke: #000000; stroke-width: 0.8"/>
      </g>
     </g>
     <g id="text_23">
      <!-- 1005 -->
      <g transform="translate(451.78803 427.678438) scale(0.1 -0.1)">
       <use xlink:href="#DejaVuSans-31"/>
       <use xlink:href="#DejaVuSans-30" transform="translate(63.623047 0)"/>
       <use xlink:href="#DejaVuSans-30" transform="translate(127.246094 0)"/>
       <use xlink:href="#DejaVuSans-35" transform="translate(190.869141 0)"/>
      </g>
     </g>
    </g>
    <g id="xtick_15">
     <g id="line2d_29">
      <g>
       <use xlink:href="#mf08a70a2bf" x="541.964545" y="413.08" style="stroke: #000000; stroke-width: 0.8"/>
      </g>
     </g>
     <g id="text_24">
      <!-- 1006 -->
      <g transform="translate(529.239545 427.678438) scale(0.1 -0.1)">
       <defs>
        <path id="DejaVuSans-36" d="M 2113 2584 
Q 1688 2584 1439 2293 
Q 1191 2003 1191 1497 
Q 1191 994 1439 701 
Q 1688 409 2113 409 
Q 2538 409 2786 701 
Q 3034 994 3034 1497 
Q 3034 2003 2786 2293 
Q 2538 2584 2113 2584 
z
M 3366 4563 
L 3366 3988 
Q 3128 4100 2886 4159 
Q 2644 4219 2406 4219 
Q 1781 4219 1451 3797 
Q 1122 3375 1075 2522 
Q 1259 2794 1537 2939 
Q 1816 3084 2150 3084 
Q 2853 3084 3261 2657 
Q 3669 2231 3669 1497 
Q 3669 778 3244 343 
Q 2819 -91 2113 -91 
Q 1303 -91 875 529 
Q 447 1150 447 2328 
Q 447 3434 972 4092 
Q 1497 4750 2381 4750 
Q 2619 4750 2861 4703 
Q 3103 4656 3366 4563 
z
" transform="scale(0.015625)"/>
       </defs>
       <use xlink:href="#DejaVuSans-31"/>
       <use xlink:href="#DejaVuSans-30" transform="translate(63.623047 0)"/>
       <use xlink:href="#DejaVuSans-30" transform="translate(127.246094 0)"/>
       <use xlink:href="#DejaVuSans-36" transform="translate(190.869141 0)"/>
      </g>
     </g>
    </g>
   </g>
   <g id="matplotlib.axis_4">
    <g id="ytick_6">
     <g id="line2d_30">
      <path d="M 54.02 388.649091 
L 565.2 388.649091 
" clip-path="url(#p0bfc77895e)" style="fill: none; stroke-dasharray: 0.8,1.32; stroke-dashoffset: 0; stroke: #b0b0b0; stroke-opacity: 0.35; stroke-width: 0.8"/>
     </g>
     <g id="line2d_31">
      <g>
       <use xlink:href="#mca8a17cf85" x="54.02" y="388.649091" style="stroke: #000000; stroke-width: 0.8"/>
      </g>
     </g>
     <g id="text_25">
      <!-- 480 -->
      <g transform="translate(27.9325 392.44831) scale(0.1 -0.1)">
       <use xlink:href="#DejaVuSans-34"/>
       <use xlink:href="#DejaVuSans-38" transform="translate(63.623047 0)"/>
       <use xlink:href="#DejaVuSans-30" transform="translate(127.246094 0)"/>
      </g>
     </g>
    </g>
    <g id="ytick_7">
     <g id="line2d_32">
      <path d="M 54.02 356.074545 
L 565.2 356.074545 
" clip-path="url(#p0bfc77895e)" style="fill: none; stroke-dasharray: 0.8,1.32; stroke-dashoffset: 0; stroke: #b0b0b0; stroke-opacity: 0.35; stroke-width: 0.8"/>
     </g>
     <g id="line2d_33">
      <g>
       <use xlink:href="#mca8a17cf85" x="54.02" y="356.074545" style="stroke: #000000; stroke-width: 0.8"/>
      </g>
     </g>
     <g id="text_26">
      <!-- 490 -->
      <g transform="translate(27.9325 359.873764) scale(0.1 -0.1)">
       <use xlink:href="#DejaVuSans-34"/>
       <use xlink:href="#DejaVuSans-39" transform="translate(63.623047 0)"/>
       <use xlink:href="#DejaVuSans-30" transform="translate(127.246094 0)"/>
      </g>
     </g>
    </g>
    <g id="ytick_8">
     <g id="line2d_34">
      <path d="M 54.02 323.5 
L 565.2 323.5 
" clip-path="url(#p0bfc77895e)" style="fill: none; stroke-dasharray: 0.8,1.32; stroke-dashoffset: 0; stroke: #b0b0b0; stroke-opacity: 0.35; stroke-width: 0.8"/>
     </g>
     <g id="line2d_35">
      <g>
       <use xlink:href="#mca8a17cf85" x="54.02" y="323.5" style="stroke: #000000; stroke-width: 0.8"/>
      </g>
     </g>
     <g id="text_27">
      <!-- 500 -->
      <g transform="translate(27.9325 327.299219) scale(0.1 -0.1)">
       <use xlink:href="#DejaVuSans-35"/>
       <use xlink:href="#DejaVuSans-30" transform="translate(63.623047 0)"/>
       <use xlink:href="#DejaVuSans-30" transform="translate(127.246094 0)"/>
      </g>
     </g>
    </g>
    <g id="ytick_9">
     <g id="line2d_36">
      <path d="M 54.02 290.925455 
L 565.2 290.925455 
" clip-path="url(#p0bfc77895e)" style="fill: none; stroke-dasharray: 0.8,1.32; stroke-dashoffset: 0; stroke: #b0b0b0; stroke-opacity: 0.35; stroke-width: 0.8"/>
     </g>
     <g id="line2d_37">
      <g>
       <use xlink:href="#mca8a17cf85" x="54.02" y="290.925455" style="stroke: #000000; stroke-width: 0.8"/>
      </g>
     </g>
     <g id="text_28">
      <!-- 510 -->
      <g transform="translate(27.9325 294.724673) scale(0.1 -0.1)">
       <use xlink:href="#DejaVuSans-35"/>
       <use xlink:href="#DejaVuSans-31" transform="translate(63.623047 0)"/>
       <use xlink:href="#DejaVuSans-30" transform="translate(127.246094 0)"/>
      </g>
     </g>
    </g>
    <g id="ytick_10">
     <g id="line2d_38">
      <path d="M 54.02 258.350909 
L 565.2 258.350909 
" clip-path="url(#p0bfc77895e)" style="fill: none; stroke-dasharray: 0.8,1.32; stroke-dashoffset: 0; stroke: #b0b0b0; stroke-opacity: 0.35; stroke-width: 0.8"/>
     </g>
     <g id="line2d_39">
      <g>
       <use xlink:href="#mca8a17cf85" x="54.02" y="258.350909" style="stroke: #000000; stroke-width: 0.8"/>
      </g>
     </g>
     <g id="text_29">
      <!-- 520 -->
      <g transform="translate(27.9325 262.150128) scale(0.1 -0.1)">
       <use xlink:href="#DejaVuSans-35"/>
       <use xlink:href="#DejaVuSans-32" transform="translate(63.623047 0)"/>
       <use xlink:href="#DejaVuSans-30" transform="translate(127.246094 0)"/>
      </g>
     </g>
    </g>
    <g id="text_30">
     <!-- episode return -->
     <g transform="translate(21.852813 359.928906) rotate(-90) scale(0.1 -0.1)">
      <defs>
       <path id="DejaVuSans-70" d="M 1159 525 
L 1159 -1331 
L 581 -1331 
L 581 3500 
L 1159 3500 
L 1159 2969 
Q 1341 3281 1617 3432 
Q 1894 3584 2278 3584 
Q 2916 3584 3314 3078 
Q 3713 2572 3713 1747 
Q 3713 922 3314 415 
Q 2916 -91 2278 -91 
Q 1894 -91 1617 61 
Q 1341 213 1159 525 
z
M 3116 1747 
Q 3116 2381 2855 2742 
Q 2594 3103 2138 3103 
Q 1681 3103 1420 2742 
Q 1159 2381 1159 1747 
Q 1159 1113 1420 752 
Q 1681 391 2138 391 
Q 2594 391 2855 752 
Q 3116 1113 3116 1747 
z
" transform="scale(0.015625)"/>
       <path id="DejaVuSans-73" d="M 2834 3397 
L 2834 2853 
Q 2591 2978 2328 3040 
Q 2066 3103 1784 3103 
Q 1356 3103 1142 2972 
Q 928 2841 928 2578 
Q 928 2378 1081 2264 
Q 1234 2150 1697 2047 
L 1894 2003 
Q 2506 1872 2764 1633 
Q 3022 1394 3022 966 
Q 3022 478 2636 193 
Q 2250 -91 1575 -91 
Q 1294 -91 989 -36 
Q 684 19 347 128 
L 347 722 
Q 666 556 975 473 
Q 1284 391 1588 391 
Q 1994 391 2212 530 
Q 2431 669 2431 922 
Q 2431 1156 2273 1281 
Q 2116 1406 1581 1522 
L 1381 1569 
Q 847 1681 609 1914 
Q 372 2147 372 2553 
Q 372 3047 722 3315 
Q 1072 3584 1716 3584 
Q 2034 3584 2315 3537 
Q 2597 3491 2834 3397 
z
" transform="scale(0.015625)"/>
       <path id="DejaVuSans-64" d="M 2906 2969 
L 2906 4863 
L 3481 4863 
L 3481 0 
L 2906 0 
L 2906 525 
Q 2725 213 2448 61 
Q 2172 -91 1784 -91 
Q 1150 -91 751 415 
Q 353 922 353 1747 
Q 353 2572 751 3078 
Q 1150 3584 1784 3584 
Q 2172 3584 2448 3432 
Q 2725 3281 2906 2969 
z
M 947 1747 
Q 947 1113 1208 752 
Q 1469 391 1925 391 
Q 2381 391 2643 752 
Q 2906 1113 2906 1747 
Q 2906 2381 2643 2742 
Q 2381 3103 1925 3103 
Q 1469 3103 1208 2742 
Q 947 2381 947 1747 
z
" transform="scale(0.015625)"/>
      </defs>
      <use xlink:href="#DejaVuSans-65"/>
      <use xlink:href="#DejaVuSans-70" transform="translate(61.523438 0)"/>
      <use xlink:href="#DejaVuSans-69" transform="translate(125 0)"/>
      <use xlink:href="#DejaVuSans-73" transform="translate(152.783203 0)"/>
      <use xlink:href="#DejaVuSans-6f" transform="translate(204.882812 0)"/>
      <use xlink:href="#DejaVuSans-64" transform="translate(266.064453 0)"/>
      <use xlink:href="#DejaVuSans-65" transform="translate(329.541016 0)"/>
      <use xlink:href="#DejaVuSans-20" transform="translate(391.064453 0)"/>
      <use xlink:href="#DejaVuSans-72" transform="translate(422.851562 0)"/>
      <use xlink:href="#DejaVuSans-65" transform="translate(461.714844 0)"/>
      <use xlink:href="#DejaVuSans-74" transform="translate(523.238281 0)"/>
      <use xlink:href="#DejaVuSans-75" transform="translate(562.447266 0)"/>
      <use xlink:href="#DejaVuSans-72" transform="translate(625.826172 0)"/>
      <use xlink:href="#DejaVuSans-6e" transform="translate(665.189453 0)"/>
     </g>
    </g>
   </g>
   <g id="line2d_40">
    <path d="M 77.255455 323.5 
L 154.70697 323.5 
L 232.158485 323.5 
L 309.61 323.5 
L 387.061515 323.5 
L 464.51303 323.5 
L 541.964545 323.5 
" clip-path="url(#p0bfc77895e)" style="fill: none; stroke: #b45f06; stroke-width: 1.5; stroke-linecap: square"/>
   </g>
   <g id="line2d_41">
    <path d="M 54.02 323.5 
L 565.2 323.5 
" clip-path="url(#p0bfc77895e)" style="fill: none; stroke-dasharray: 5.55,2.4; stroke-dashoffset: 0; stroke: #000000; stroke-opacity: 0.45; stroke-width: 1.5"/>
   </g>
   <g id="patch_9">
    <path d="M 54.02 413.08 
L 54.02 233.92 
" style="fill: none; stroke: #000000; stroke-width: 0.8; stroke-linejoin: miter; stroke-linecap: square"/>
   </g>
   <g id="patch_10">
    <path d="M 565.2 413.08 
L 565.2 233.92 
" style="fill: none; stroke: #000000; stroke-width: 0.8; stroke-linejoin: miter; stroke-linecap: square"/>
   </g>
   <g id="patch_11">
    <path d="M 54.02 413.08 
L 565.2 413.08 
" style="fill: none; stroke: #000000; stroke-width: 0.8; stroke-linejoin: miter; stroke-linecap: square"/>
   </g>
   <g id="patch_12">
    <path d="M 54.02 233.92 
L 565.2 233.92 
" style="fill: none; stroke: #000000; stroke-width: 0.8; stroke-linejoin: miter; stroke-linecap: square"/>
   </g>
   <g id="legend_2">
    <g id="patch_13">
     <path d="M 442.098437 271.27625 
L 558.2 271.27625 
Q 560.2 271.27625 560.2 269.27625 
L 560.2 240.92 
Q 560.2 238.92 558.2 238.92 
L 442.098437 238.92 
Q 440.098437 238.92 440.098437 240.92 
L 440.098437 269.27625 
Q 440.098437 271.27625 442.098437 271.27625 
z
" style="fill: #ffffff; opacity: 0.8; stroke: #cccccc; stroke-linejoin: miter"/>
    </g>
    <g id="line2d_42">
     <path d="M 444.098437 247.018438 
L 454.098437 247.018438 
L 464.098437 247.018438 
" style="fill: none; stroke: #b45f06; stroke-width: 1.5; stroke-linecap: square"/>
    </g>
    <g id="text_31">
     <!-- ga return -->
     <g transform="translate(472.098437 250.518438) scale(0.1 -0.1)">
      <defs>
       <path id="DejaVuSans-67" d="M 2906 1791 
Q 2906 2416 2648 2759 
Q 2391 3103 1925 3103 
Q 1463 3103 1205 2759 
Q 947 2416 947 1791 
Q 947 1169 1205 825 
Q 1463 481 1925 481 
Q 2391 481 2648 825 
Q 2906 1169 2906 1791 
z
M 3481 434 
Q 3481 -459 3084 -895 
Q 2688 -1331 1869 -1331 
Q 1566 -1331 1297 -1286 
Q 1028 -1241 775 -1147 
L 775 -588 
Q 1028 -725 1275 -790 
Q 1522 -856 1778 -856 
Q 2344 -856 2625 -561 
Q 2906 -266 2906 331 
L 2906 616 
Q 2728 306 2450 153 
Q 2172 0 1784 0 
Q 1141 0 747 490 
Q 353 981 353 1791 
Q 353 2603 747 3093 
Q 1141 3584 1784 3584 
Q 2172 3584 2450 3431 
Q 2728 3278 2906 2969 
L 2906 3500 
L 3481 3500 
L 3481 434 
z
" transform="scale(0.015625)"/>
      </defs>
      <use xlink:href="#DejaVuSans-67"/>
      <use xlink:href="#DejaVuSans-61" transform="translate(63.476562 0)"/>
      <use xlink:href="#DejaVuSans-20" transform="translate(124.755859 0)"/>
      <use xlink:href="#DejaVuSans-72" transform="translate(156.542969 0)"/>
      <use xlink:href="#DejaVuSans-65" transform="translate(195.40625 0)"/>
      <use xlink:href="#DejaVuSans-74" transform="translate(256.929688 0)"/>
      <use xlink:href="#DejaVuSans-75" transform="translate(296.138672 0)"/>
      <use xlink:href="#DejaVuSans-72" transform="translate(359.517578 0)"/>
      <use xlink:href="#DejaVuSans-6e" transform="translate(398.880859 0)"/>
     </g>
    </g>
    <g id="line2d_43">
     <path d="M 444.098437 261.696563 
L 454.098437 261.696563 
L 464.098437 261.696563 
" style="fill: none; stroke-dasharray: 5.55,2.4; stroke-dashoffset: 0; stroke: #000000; stroke-opacity: 0.45; stroke-width: 1.5"/>
    </g>
    <g id="text_32">
     <!-- ppo return mean -->
     <g transform="translate(472.098437 265.196563) scale(0.1 -0.1)">
      <defs>
       <path id="DejaVuSans-6d" d="M 3328 2828 
Q 3544 3216 3844 3400 
Q 4144 3584 4550 3584 
Q 5097 3584 5394 3201 
Q 5691 2819 5691 2113 
L 5691 0 
L 5113 0 
L 5113 2094 
Q 5113 2597 4934 2840 
Q 4756 3084 4391 3084 
Q 3944 3084 3684 2787 
Q 3425 2491 3425 1978 
L 3425 0 
L 2847 0 
L 2847 2094 
Q 2847 2600 2669 2842 
Q 2491 3084 2119 3084 
Q 1678 3084 1418 2786 
Q 1159 2488 1159 1978 
L 1159 0 
L 581 0 
L 581 3500 
L 1159 3500 
L 1159 2956 
Q 1356 3278 1631 3431 
Q 1906 3584 2284 3584 
Q 2666 3584 2933 3390 
Q 3200 3197 3328 2828 
z
" transform="scale(0.015625)"/>
      </defs>
      <use xlink:href="#DejaVuSans-70"/>
      <use xlink:href="#DejaVuSans-70" transform="translate(63.476562 0)"/>
      <use xlink:href="#DejaVuSans-6f" transform="translate(126.953125 0)"/>
      <use xlink:href="#DejaVuSans-20" transform="translate(188.134766 0)"/>
      <use xlink:href="#DejaVuSans-72" transform="translate(219.921875 0)"/>
      <use xlink:href="#DejaVuSans-65" transform="translate(258.785156 0)"/>
      <use xlink:href="#DejaVuSans-74" transform="translate(320.308594 0)"/>
      <use xlink:href="#DejaVuSans-75" transform="translate(359.517578 0)"/>
      <use xlink:href="#DejaVuSans-72" transform="translate(422.896484 0)"/>
      <use xlink:href="#DejaVuSans-6e" transform="translate(462.259766 0)"/>
      <use xlink:href="#DejaVuSans-20" transform="translate(525.638672 0)"/>
      <use xlink:href="#DejaVuSans-6d" transform="translate(557.425781 0)"/>
      <use xlink:href="#DejaVuSans-65" transform="translate(654.837891 0)"/>
      <use xlink:href="#DejaVuSans-61" transform="translate(716.361328 0)"/>
      <use xlink:href="#DejaVuSans-6e" transform="translate(777.640625 0)"/>
     </g>
    </g>
   </g>
  </g>
  <g id="axes_3">
   <g id="patch_14">
    <path d="M 54.02 620.12 
L 565.2 620.12 
L 565.2 440.96 
L 54.02 440.96 
z
" style="fill: #ffffff"/>
   </g>
   <g id="patch_15">
    <path d="M 77.255455 620.12 
L 175.088947 620.12 
L 175.088947 620.12 
L 77.255455 620.12 
z
" clip-path="url(#p96cb00fcfe)" style="fill: #4c5f99"/>
   </g>
   <g id="patch_16">
    <path d="M 199.547321 620.12 
L 297.380813 620.12 
L 297.380813 620.12 
L 199.547321 620.12 
z
" clip-path="url(#p96cb00fcfe)" style="fill: #7f8c8d"/>
   </g>
   <g id="patch_17">
    <path d="M 321.839187 620.12 
L 419.672679 620.12 
L 419.672679 620.12 
L 321.839187 620.12 
z
" clip-path="url(#p96cb00fcfe)" style="fill: #32746d"/>
   </g>
   <g id="patch_18">
    <path d="M 444.131053 620.12 
L 541.964545 620.12 
L 541.964545 449.491429 
L 444.131053 449.491429 
z
" clip-path="url(#p96cb00fcfe)" style="fill: #b45f06"/>
   </g>
   <g id="matplotlib.axis_5">
    <g id="xtick_16">
     <g id="line2d_44">
      <g>
       <use xlink:href="#mf08a70a2bf" x="126.172201" y="620.12" style="stroke: #000000; stroke-width: 0.8"/>
      </g>
     </g>
     <g id="text_33">
      <!-- return mean -->
      <g transform="translate(95.118295 634.718438) scale(0.1 -0.1)">
       <use xlink:href="#DejaVuSans-72"/>
       <use xlink:href="#DejaVuSans-65" transform="translate(38.863281 0)"/>
       <use xlink:href="#DejaVuSans-74" transform="translate(100.386719 0)"/>
       <use xlink:href="#DejaVuSans-75" transform="translate(139.595703 0)"/>
       <use xlink:href="#DejaVuSans-72" transform="translate(202.974609 0)"/>
       <use xlink:href="#DejaVuSans-6e" transform="translate(242.337891 0)"/>
       <use xlink:href="#DejaVuSans-20" transform="translate(305.716797 0)"/>
       <use xlink:href="#DejaVuSans-6d" transform="translate(337.503906 0)"/>
       <use xlink:href="#DejaVuSans-65" transform="translate(434.916016 0)"/>
       <use xlink:href="#DejaVuSans-61" transform="translate(496.439453 0)"/>
       <use xlink:href="#DejaVuSans-6e" transform="translate(557.71875 0)"/>
      </g>
     </g>
    </g>
    <g id="xtick_17">
     <g id="line2d_45">
      <g>
       <use xlink:href="#mf08a70a2bf" x="248.464067" y="620.12" style="stroke: #000000; stroke-width: 0.8"/>
      </g>
     </g>
     <g id="text_34">
      <!-- length mean -->
      <g transform="translate(216.757817 634.718438) scale(0.1 -0.1)">
       <defs>
        <path id="DejaVuSans-68" d="M 3513 2113 
L 3513 0 
L 2938 0 
L 2938 2094 
Q 2938 2591 2744 2837 
Q 2550 3084 2163 3084 
Q 1697 3084 1428 2787 
Q 1159 2491 1159 1978 
L 1159 0 
L 581 0 
L 581 4863 
L 1159 4863 
L 1159 2956 
Q 1366 3272 1645 3428 
Q 1925 3584 2291 3584 
Q 2894 3584 3203 3211 
Q 3513 2838 3513 2113 
z
" transform="scale(0.015625)"/>
       </defs>
       <use xlink:href="#DejaVuSans-6c"/>
       <use xlink:href="#DejaVuSans-65" transform="translate(27.783203 0)"/>
       <use xlink:href="#DejaVuSans-6e" transform="translate(89.306641 0)"/>
       <use xlink:href="#DejaVuSans-67" transform="translate(152.685547 0)"/>
       <use xlink:href="#DejaVuSans-74" transform="translate(216.162109 0)"/>
       <use xlink:href="#DejaVuSans-68" transform="translate(255.371094 0)"/>
       <use xlink:href="#DejaVuSans-20" transform="translate(318.75 0)"/>
       <use xlink:href="#DejaVuSans-6d" transform="translate(350.537109 0)"/>
       <use xlink:href="#DejaVuSans-65" transform="translate(447.949219 0)"/>
       <use xlink:href="#DejaVuSans-61" transform="translate(509.472656 0)"/>
       <use xlink:href="#DejaVuSans-6e" transform="translate(570.751953 0)"/>
      </g>
     </g>
    </g>
    <g id="xtick_18">
     <g id="line2d_46">
      <g>
       <use xlink:href="#mf08a70a2bf" x="370.755933" y="620.12" style="stroke: #000000; stroke-width: 0.8"/>
      </g>
     </g>
     <g id="text_35">
      <!-- action=1 -->
      <g transform="translate(347.994214 634.718438) scale(0.1 -0.1)">
       <defs>
        <path id="DejaVuSans-3d" d="M 678 2906 
L 4684 2906 
L 4684 2381 
L 678 2381 
L 678 2906 
z
M 678 1631 
L 4684 1631 
L 4684 1100 
L 678 1100 
L 678 1631 
z
" transform="scale(0.015625)"/>
       </defs>
       <use xlink:href="#DejaVuSans-61"/>
       <use xlink:href="#DejaVuSans-63" transform="translate(61.279297 0)"/>
       <use xlink:href="#DejaVuSans-74" transform="translate(116.259766 0)"/>
       <use xlink:href="#DejaVuSans-69" transform="translate(155.46875 0)"/>
       <use xlink:href="#DejaVuSans-6f" transform="translate(183.251953 0)"/>
       <use xlink:href="#DejaVuSans-6e" transform="translate(244.433594 0)"/>
       <use xlink:href="#DejaVuSans-3d" transform="translate(307.8125 0)"/>
       <use xlink:href="#DejaVuSans-31" transform="translate(391.601562 0)"/>
      </g>
     </g>
    </g>
    <g id="xtick_19">
     <g id="line2d_47">
      <g>
       <use xlink:href="#mf08a70a2bf" x="493.047799" y="620.12" style="stroke: #000000; stroke-width: 0.8"/>
      </g>
     </g>
     <g id="text_36">
      <!-- switch rate -->
      <g transform="translate(465.341549 634.718438) scale(0.1 -0.1)">
       <defs>
        <path id="DejaVuSans-77" d="M 269 3500 
L 844 3500 
L 1563 769 
L 2278 3500 
L 2956 3500 
L 3675 769 
L 4391 3500 
L 4966 3500 
L 4050 0 
L 3372 0 
L 2619 2869 
L 1863 0 
L 1184 0 
L 269 3500 
z
" transform="scale(0.015625)"/>
       </defs>
       <use xlink:href="#DejaVuSans-73"/>
       <use xlink:href="#DejaVuSans-77" transform="translate(52.099609 0)"/>
       <use xlink:href="#DejaVuSans-69" transform="translate(133.886719 0)"/>
       <use xlink:href="#DejaVuSans-74" transform="translate(161.669922 0)"/>
       <use xlink:href="#DejaVuSans-63" transform="translate(200.878906 0)"/>
       <use xlink:href="#DejaVuSans-68" transform="translate(255.859375 0)"/>
       <use xlink:href="#DejaVuSans-20" transform="translate(319.238281 0)"/>
       <use xlink:href="#DejaVuSans-72" transform="translate(351.025391 0)"/>
       <use xlink:href="#DejaVuSans-61" transform="translate(392.138672 0)"/>
       <use xlink:href="#DejaVuSans-74" transform="translate(453.417969 0)"/>
       <use xlink:href="#DejaVuSans-65" transform="translate(492.626953 0)"/>
      </g>
     </g>
    </g>
   </g>
   <g id="matplotlib.axis_6">
    <g id="ytick_11">
     <g id="line2d_48">
      <path d="M 54.02 620.12 
L 565.2 620.12 
" clip-path="url(#p96cb00fcfe)" style="fill: none; stroke-dasharray: 0.8,1.32; stroke-dashoffset: 0; stroke: #b0b0b0; stroke-opacity: 0.35; stroke-width: 0.8"/>
     </g>
     <g id="line2d_49">
      <g>
       <use xlink:href="#mca8a17cf85" x="54.02" y="620.12" style="stroke: #000000; stroke-width: 0.8"/>
      </g>
     </g>
     <g id="text_37">
      <!-- 0.00 -->
      <g transform="translate(24.754375 623.919219) scale(0.1 -0.1)">
       <use xlink:href="#DejaVuSans-30"/>
       <use xlink:href="#DejaVuSans-2e" transform="translate(63.623047 0)"/>
       <use xlink:href="#DejaVuSans-30" transform="translate(95.410156 0)"/>
       <use xlink:href="#DejaVuSans-30" transform="translate(159.033203 0)"/>
      </g>
     </g>
    </g>
    <g id="ytick_12">
     <g id="line2d_50">
      <path d="M 54.02 582.15786 
L 565.2 582.15786 
" clip-path="url(#p96cb00fcfe)" style="fill: none; stroke-dasharray: 0.8,1.32; stroke-dashoffset: 0; stroke: #b0b0b0; stroke-opacity: 0.35; stroke-width: 0.8"/>
     </g>
     <g id="line2d_51">
      <g>
       <use xlink:href="#mca8a17cf85" x="54.02" y="582.15786" style="stroke: #000000; stroke-width: 0.8"/>
      </g>
     </g>
     <g id="text_38">
      <!-- 0.01 -->
      <g transform="translate(24.754375 585.957079) scale(0.1 -0.1)">
       <use xlink:href="#DejaVuSans-30"/>
       <use xlink:href="#DejaVuSans-2e" transform="translate(63.623047 0)"/>
       <use xlink:href="#DejaVuSans-30" transform="translate(95.410156 0)"/>
       <use xlink:href="#DejaVuSans-31" transform="translate(159.033203 0)"/>
      </g>
     </g>
    </g>
    <g id="ytick_13">
     <g id="line2d_52">
      <path d="M 54.02 544.19572 
L 565.2 544.19572 
" clip-path="url(#p96cb00fcfe)" style="fill: none; stroke-dasharray: 0.8,1.32; stroke-dashoffset: 0; stroke: #b0b0b0; stroke-opacity: 0.35; stroke-width: 0.8"/>
     </g>
     <g id="line2d_53">
      <g>
       <use xlink:href="#mca8a17cf85" x="54.02" y="544.19572" style="stroke: #000000; stroke-width: 0.8"/>
      </g>
     </g>
     <g id="text_39">
      <!-- 0.02 -->
      <g transform="translate(24.754375 547.994938) scale(0.1 -0.1)">
       <use xlink:href="#DejaVuSans-30"/>
       <use xlink:href="#DejaVuSans-2e" transform="translate(63.623047 0)"/>
       <use xlink:href="#DejaVuSans-30" transform="translate(95.410156 0)"/>
       <use xlink:href="#DejaVuSans-32" transform="translate(159.033203 0)"/>
      </g>
     </g>
    </g>
    <g id="ytick_14">
     <g id="line2d_54">
      <path d="M 54.02 506.23358 
L 565.2 506.23358 
" clip-path="url(#p96cb00fcfe)" style="fill: none; stroke-dasharray: 0.8,1.32; stroke-dashoffset: 0; stroke: #b0b0b0; stroke-opacity: 0.35; stroke-width: 0.8"/>
     </g>
     <g id="line2d_55">
      <g>
       <use xlink:href="#mca8a17cf85" x="54.02" y="506.23358" style="stroke: #000000; stroke-width: 0.8"/>
      </g>
     </g>
     <g id="text_40">
      <!-- 0.03 -->
      <g transform="translate(24.754375 510.032798) scale(0.1 -0.1)">
       <use xlink:href="#DejaVuSans-30"/>
       <use xlink:href="#DejaVuSans-2e" transform="translate(63.623047 0)"/>
       <use xlink:href="#DejaVuSans-30" transform="translate(95.410156 0)"/>
       <use xlink:href="#DejaVuSans-33" transform="translate(159.033203 0)"/>
      </g>
     </g>
    </g>
    <g id="ytick_15">
     <g id="line2d_56">
      <path d="M 54.02 468.271439 
L 565.2 468.271439 
" clip-path="url(#p96cb00fcfe)" style="fill: none; stroke-dasharray: 0.8,1.32; stroke-dashoffset: 0; stroke: #b0b0b0; stroke-opacity: 0.35; stroke-width: 0.8"/>
     </g>
     <g id="line2d_57">
      <g>
       <use xlink:href="#mca8a17cf85" x="54.02" y="468.271439" style="stroke: #000000; stroke-width: 0.8"/>
      </g>
     </g>
     <g id="text_41">
      <!-- 0.04 -->
      <g transform="translate(24.754375 472.070658) scale(0.1 -0.1)">
       <use xlink:href="#DejaVuSans-30"/>
       <use xlink:href="#DejaVuSans-2e" transform="translate(63.623047 0)"/>
       <use xlink:href="#DejaVuSans-30" transform="translate(95.410156 0)"/>
       <use xlink:href="#DejaVuSans-34" transform="translate(159.033203 0)"/>
      </g>
     </g>
    </g>
    <g id="text_42">
     <!-- absolute delta vs PPO -->
     <g transform="translate(18.674688 584.997813) rotate(-90) scale(0.1 -0.1)">
      <defs>
       <path id="DejaVuSans-62" d="M 3116 1747 
Q 3116 2381 2855 2742 
Q 2594 3103 2138 3103 
Q 1681 3103 1420 2742 
Q 1159 2381 1159 1747 
Q 1159 1113 1420 752 
Q 1681 391 2138 391 
Q 2594 391 2855 752 
Q 3116 1113 3116 1747 
z
M 1159 2969 
Q 1341 3281 1617 3432 
Q 1894 3584 2278 3584 
Q 2916 3584 3314 3078 
Q 3713 2572 3713 1747 
Q 3713 922 3314 415 
Q 2916 -91 2278 -91 
Q 1894 -91 1617 61 
Q 1341 213 1159 525 
L 1159 0 
L 581 0 
L 581 4863 
L 1159 4863 
L 1159 2969 
z
" transform="scale(0.015625)"/>
      </defs>
      <use xlink:href="#DejaVuSans-61"/>
      <use xlink:href="#DejaVuSans-62" transform="translate(61.279297 0)"/>
      <use xlink:href="#DejaVuSans-73" transform="translate(124.755859 0)"/>
      <use xlink:href="#DejaVuSans-6f" transform="translate(176.855469 0)"/>
      <use xlink:href="#DejaVuSans-6c" transform="translate(238.037109 0)"/>
      <use xlink:href="#DejaVuSans-75" transform="translate(265.820312 0)"/>
      <use xlink:href="#DejaVuSans-74" transform="translate(329.199219 0)"/>
      <use xlink:href="#DejaVuSans-65" transform="translate(368.408203 0)"/>
      <use xlink:href="#DejaVuSans-20" transform="translate(429.931641 0)"/>
      <use xlink:href="#DejaVuSans-64" transform="translate(461.71875 0)"/>
      <use xlink:href="#DejaVuSans-65" transform="translate(525.195312 0)"/>
      <use xlink:href="#DejaVuSans-6c" transform="translate(586.71875 0)"/>
      <use xlink:href="#DejaVuSans-74" transform="translate(614.501953 0)"/>
      <use xlink:href="#DejaVuSans-61" transform="translate(653.710938 0)"/>
      <use xlink:href="#DejaVuSans-20" transform="translate(714.990234 0)"/>
      <use xlink:href="#DejaVuSans-76" transform="translate(746.777344 0)"/>
      <use xlink:href="#DejaVuSans-73" transform="translate(805.957031 0)"/>
      <use xlink:href="#DejaVuSans-20" transform="translate(858.056641 0)"/>
      <use xlink:href="#DejaVuSans-50" transform="translate(889.84375 0)"/>
      <use xlink:href="#DejaVuSans-50" transform="translate(950.146484 0)"/>
      <use xlink:href="#DejaVuSans-4f" transform="translate(1010.449219 0)"/>
     </g>
    </g>
   </g>
   <g id="patch_19">
    <path d="M 54.02 620.12 
L 54.02 440.96 
" style="fill: none; stroke: #000000; stroke-width: 0.8; stroke-linejoin: miter; stroke-linecap: square"/>
   </g>
   <g id="patch_20">
    <path d="M 565.2 620.12 
L 565.2 440.96 
" style="fill: none; stroke: #000000; stroke-width: 0.8; stroke-linejoin: miter; stroke-linecap: square"/>
   </g>
   <g id="patch_21">
    <path d="M 54.02 620.12 
L 565.2 620.12 
" style="fill: none; stroke: #000000; stroke-width: 0.8; stroke-linejoin: miter; stroke-linecap: square"/>
   </g>
   <g id="patch_22">
    <path d="M 54.02 440.96 
L 565.2 440.96 
" style="fill: none; stroke: #000000; stroke-width: 0.8; stroke-linejoin: miter; stroke-linecap: square"/>
   </g>
  </g>
 </g>
 <defs>
  <clipPath id="p39a2cee8c5">
   <rect x="54.02" y="26.88" width="511.18" height="179.16"/>
  </clipPath>
  <clipPath id="p0bfc77895e">
   <rect x="54.02" y="233.92" width="511.18" height="179.16"/>
  </clipPath>
  <clipPath id="p96cb00fcfe">
   <rect x="54.02" y="440.96" width="511.18" height="179.16"/>
  </clipPath>
 </defs>
</svg>
