<svg xmlns="http://www.w3.org/2000/svg" width="1200" height="900" viewBox="0 0 1200 900">
<rect width="100%" height="100%" fill="#fbfaf6"/>
<text x="100" y="30" font-family="monospace" font-size="24" fill="#222">Imitating Constant-Zero CartPole Policy</text>
<text x="100" y="52" font-family="monospace" font-size="14" fill="#555">top: soft-accuracy fitness, bottom: mutation std across 40 generations</text>
<text x="100" y="72" font-family="monospace" font-size="12" fill="#777">fitness panel is log-scaled by remaining gap to 1.0, so the top end is expanded</text>
<text x="100" y="78" font-family="monospace" font-size="13" fill="#444">fitness</text>
<line x1="100" y1="520.00" x2="1160" y2="520.00" stroke="#ddd7c8" stroke-width="1"/>
<text x="88" y="525.00" text-anchor="end" font-family="monospace" font-size="12" fill="#555">0.50</text>
<line x1="100" y1="508.73" x2="1160" y2="508.73" stroke="#ddd7c8" stroke-width="1"/>
<text x="88" y="513.73" text-anchor="end" font-family="monospace" font-size="12" fill="#555">0.60</text>
<line x1="100" y1="494.21" x2="1160" y2="494.21" stroke="#ddd7c8" stroke-width="1"/>
<text x="88" y="499.21" text-anchor="end" font-family="monospace" font-size="12" fill="#555">0.70</text>
<line x1="100" y1="473.74" x2="1160" y2="473.74" stroke="#ddd7c8" stroke-width="1"/>
<text x="88" y="478.74" text-anchor="end" font-family="monospace" font-size="12" fill="#555">0.80</text>
<line x1="100" y1="438.75" x2="1160" y2="438.75" stroke="#ddd7c8" stroke-width="1"/>
<text x="88" y="443.75" text-anchor="end" font-family="monospace" font-size="12" fill="#555">0.90</text>
<line x1="100" y1="403.75" x2="1160" y2="403.75" stroke="#ddd7c8" stroke-width="1"/>
<text x="88" y="408.75" text-anchor="end" font-family="monospace" font-size="12" fill="#555">0.95</text>
<line x1="100" y1="357.49" x2="1160" y2="357.49" stroke="#ddd7c8" stroke-width="1"/>
<text x="88" y="362.49" text-anchor="end" font-family="monospace" font-size="12" fill="#555">0.98</text>
<line x1="100" y1="322.50" x2="1160" y2="322.50" stroke="#ddd7c8" stroke-width="1"/>
<text x="88" y="327.50" text-anchor="end" font-family="monospace" font-size="12" fill="#555">0.99</text>
<line x1="100" y1="287.50" x2="1160" y2="287.50" stroke="#ddd7c8" stroke-width="1"/>
<text x="88" y="292.50" text-anchor="end" font-family="monospace" font-size="12" fill="#555">0.995</text>
<line x1="100" y1="206.25" x2="1160" y2="206.25" stroke="#ddd7c8" stroke-width="1"/>
<text x="88" y="211.25" text-anchor="end" font-family="monospace" font-size="12" fill="#555">0.999</text>
<line x1="100" y1="90.00" x2="1160" y2="90.00" stroke="#ddd7c8" stroke-width="1"/>
<text x="88" y="95.00" text-anchor="end" font-family="monospace" font-size="12" fill="#555">0.9999</text>
<line x1="100.00" y1="90" x2="100.00" y2="520" stroke="#eee7d8" stroke-width="1"/>
<line x1="100.00" y1="590" x2="100.00" y2="770" stroke="#eee7d8" stroke-width="1"/>
<line x1="181.54" y1="90" x2="181.54" y2="520" stroke="#eee7d8" stroke-width="1"/>
<line x1="181.54" y1="590" x2="181.54" y2="770" stroke="#eee7d8" stroke-width="1"/>
<line x1="263.08" y1="90" x2="263.08" y2="520" stroke="#eee7d8" stroke-width="1"/>
<line x1="263.08" y1="590" x2="263.08" y2="770" stroke="#eee7d8" stroke-width="1"/>
<line x1="344.62" y1="90" x2="344.62" y2="520" stroke="#eee7d8" stroke-width="1"/>
<line x1="344.62" y1="590" x2="344.62" y2="770" stroke="#eee7d8" stroke-width="1"/>
<line x1="426.15" y1="90" x2="426.15" y2="520" stroke="#eee7d8" stroke-width="1"/>
<line x1="426.15" y1="590" x2="426.15" y2="770" stroke="#eee7d8" stroke-width="1"/>
<line x1="507.69" y1="90" x2="507.69" y2="520" stroke="#eee7d8" stroke-width="1"/>
<line x1="507.69" y1="590" x2="507.69" y2="770" stroke="#eee7d8" stroke-width="1"/>
<line x1="589.23" y1="90" x2="589.23" y2="520" stroke="#eee7d8" stroke-width="1"/>
<line x1="589.23" y1="590" x2="589.23" y2="770" stroke="#eee7d8" stroke-width="1"/>
<line x1="670.77" y1="90" x2="670.77" y2="520" stroke="#eee7d8" stroke-width="1"/>
<line x1="670.77" y1="590" x2="670.77" y2="770" stroke="#eee7d8" stroke-width="1"/>
<line x1="752.31" y1="90" x2="752.31" y2="520" stroke="#eee7d8" stroke-width="1"/>
<line x1="752.31" y1="590" x2="752.31" y2="770" stroke="#eee7d8" stroke-width="1"/>
<line x1="833.85" y1="90" x2="833.85" y2="520" stroke="#eee7d8" stroke-width="1"/>
<line x1="833.85" y1="590" x2="833.85" y2="770" stroke="#eee7d8" stroke-width="1"/>
<line x1="915.38" y1="90" x2="915.38" y2="520" stroke="#eee7d8" stroke-width="1"/>
<line x1="915.38" y1="590" x2="915.38" y2="770" stroke="#eee7d8" stroke-width="1"/>
<line x1="996.92" y1="90" x2="996.92" y2="520" stroke="#eee7d8" stroke-width="1"/>
<line x1="996.92" y1="590" x2="996.92" y2="770" stroke="#eee7d8" stroke-width="1"/>
<line x1="1078.46" y1="90" x2="1078.46" y2="520" stroke="#eee7d8" stroke-width="1"/>
<line x1="1078.46" y1="590" x2="1078.46" y2="770" stroke="#eee7d8" stroke-width="1"/>
<line x1="1160.00" y1="90" x2="1160.00" y2="520" stroke="#eee7d8" stroke-width="1"/>
<line x1="1160.00" y1="590" x2="1160.00" y2="770" stroke="#eee7d8" stroke-width="1"/>
<rect x="100" y="90" width="1060" height="430" fill="none" stroke="#222" stroke-width="1.5"/>
<polyline fill="none" stroke="#1f77b4" stroke-width="4" points="100.00,519.38 127.18,477.00 154.36,438.96 181.54,400.58 208.72,356.01 235.90,320.21 263.08,313.56 290.26,295.79 317.44,294.59 344.62,278.07 371.79,280.67 398.97,268.95 426.15,262.18 453.33,247.57 480.51,261.01 507.69,232.37 534.87,238.62 562.05,235.26 589.23,222.63 616.41,208.68 643.59,208.36 670.77,215.22 697.95,195.51 725.13,171.05 752.31,178.79 779.49,163.86 806.67,173.72 833.85,141.69 861.03,144.63 888.21,148.28 915.38,118.09 942.56,123.63 969.74,109.87 996.92,122.85 1024.10,90.00 1051.28,90.00 1078.46,90.00 1105.64,90.00 1132.82,90.00 1160.00,90.00"/>
<polyline fill="none" stroke="#2a9d5b" stroke-width="4" points="100.00,315.65 127.18,288.04 154.36,297.58 181.54,313.56 208.72,302.51 235.90,289.71 263.08,294.24 290.26,264.62 317.44,271.45 344.62,254.01 371.79,253.59 398.97,248.53 426.15,233.78 453.33,221.30 480.51,240.82 507.69,215.98 534.87,223.91 562.05,209.95 589.23,203.81 616.41,171.63 643.59,173.63 670.77,182.64 697.95,169.73 725.13,152.50 752.31,147.49 779.49,126.43 806.67,140.16 833.85,111.77 861.03,102.67 888.21,115.07 915.38,90.00 942.56,90.00 969.74,90.00 996.92,94.97 1024.10,90.00 1051.28,90.00 1078.46,90.00 1105.64,90.00 1132.82,90.00 1160.00,90.00"/>
<circle cx="100.00" cy="519.38" r="2.2" fill="#1f77b4"/>
<circle cx="127.18" cy="477.00" r="2.2" fill="#1f77b4"/>
<circle cx="154.36" cy="438.96" r="2.2" fill="#1f77b4"/>
<circle cx="181.54" cy="400.58" r="2.2" fill="#1f77b4"/>
<circle cx="208.72" cy="356.01" r="2.2" fill="#1f77b4"/>
<circle cx="235.90" cy="320.21" r="2.2" fill="#1f77b4"/>
<circle cx="263.08" cy="313.56" r="2.2" fill="#1f77b4"/>
<circle cx="290.26" cy="295.79" r="2.2" fill="#1f77b4"/>
<circle cx="317.44" cy="294.59" r="2.2" fill="#1f77b4"/>
<circle cx="344.62" cy="278.07" r="2.2" fill="#1f77b4"/>
<circle cx="371.79" cy="280.67" r="2.2" fill="#1f77b4"/>
<circle cx="398.97" cy="268.95" r="2.2" fill="#1f77b4"/>
<circle cx="426.15" cy="262.18" r="2.2" fill="#1f77b4"/>
<circle cx="453.33" cy="247.57" r="2.2" fill="#1f77b4"/>
<circle cx="480.51" cy="261.01" r="2.2" fill="#1f77b4"/>
<circle cx="507.69" cy="232.37" r="2.2" fill="#1f77b4"/>
<circle cx="534.87" cy="238.62" r="2.2" fill="#1f77b4"/>
<circle cx="562.05" cy="235.26" r="2.2" fill="#1f77b4"/>
<circle cx="589.23" cy="222.63" r="2.2" fill="#1f77b4"/>
<circle cx="616.41" cy="208.68" r="2.2" fill="#1f77b4"/>
<circle cx="643.59" cy="208.36" r="2.2" fill="#1f77b4"/>
<circle cx="670.77" cy="215.22" r="2.2" fill="#1f77b4"/>
<circle cx="697.95" cy="195.51" r="2.2" fill="#1f77b4"/>
<circle cx="725.13" cy="171.05" r="2.2" fill="#1f77b4"/>
<circle cx="752.31" cy="178.79" r="2.2" fill="#1f77b4"/>
<circle cx="779.49" cy="163.86" r="2.2" fill="#1f77b4"/>
<circle cx="806.67" cy="173.72" r="2.2" fill="#1f77b4"/>
<circle cx="833.85" cy="141.69" r="2.2" fill="#1f77b4"/>
<circle cx="861.03" cy="144.63" r="2.2" fill="#1f77b4"/>
<circle cx="888.21" cy="148.28" r="2.2" fill="#1f77b4"/>
<circle cx="915.38" cy="118.09" r="2.2" fill="#1f77b4"/>
<circle cx="942.56" cy="123.63" r="2.2" fill="#1f77b4"/>
<circle cx="969.74" cy="109.87" r="2.2" fill="#1f77b4"/>
<circle cx="996.92" cy="122.85" r="2.2" fill="#1f77b4"/>
<circle cx="1024.10" cy="90.00" r="2.2" fill="#1f77b4"/>
<circle cx="1051.28" cy="90.00" r="2.2" fill="#1f77b4"/>
<circle cx="1078.46" cy="90.00" r="2.2" fill="#1f77b4"/>
<circle cx="1105.64" cy="90.00" r="2.2" fill="#1f77b4"/>
<circle cx="1132.82" cy="90.00" r="2.2" fill="#1f77b4"/>
<circle cx="1160.00" cy="90.00" r="2.2" fill="#1f77b4"/>
<circle cx="100.00" cy="315.65" r="2.2" fill="#2a9d5b"/>
<circle cx="127.18" cy="288.04" r="2.2" fill="#2a9d5b"/>
<circle cx="154.36" cy="297.58" r="2.2" fill="#2a9d5b"/>
<circle cx="181.54" cy="313.56" r="2.2" fill="#2a9d5b"/>
<circle cx="208.72" cy="302.51" r="2.2" fill="#2a9d5b"/>
<circle cx="235.90" cy="289.71" r="2.2" fill="#2a9d5b"/>
<circle cx="263.08" cy="294.24" r="2.2" fill="#2a9d5b"/>
<circle cx="290.26" cy="264.62" r="2.2" fill="#2a9d5b"/>
<circle cx="317.44" cy="271.45" r="2.2" fill="#2a9d5b"/>
<circle cx="344.62" cy="254.01" r="2.2" fill="#2a9d5b"/>
<circle cx="371.79" cy="253.59" r="2.2" fill="#2a9d5b"/>
<circle cx="398.97" cy="248.53" r="2.2" fill="#2a9d5b"/>
<circle cx="426.15" cy="233.78" r="2.2" fill="#2a9d5b"/>
<circle cx="453.33" cy="221.30" r="2.2" fill="#2a9d5b"/>
<circle cx="480.51" cy="240.82" r="2.2" fill="#2a9d5b"/>
<circle cx="507.69" cy="215.98" r="2.2" fill="#2a9d5b"/>
<circle cx="534.87" cy="223.91" r="2.2" fill="#2a9d5b"/>
<circle cx="562.05" cy="209.95" r="2.2" fill="#2a9d5b"/>
<circle cx="589.23" cy="203.81" r="2.2" fill="#2a9d5b"/>
<circle cx="616.41" cy="171.63" r="2.2" fill="#2a9d5b"/>
<circle cx="643.59" cy="173.63" r="2.2" fill="#2a9d5b"/>
<circle cx="670.77" cy="182.64" r="2.2" fill="#2a9d5b"/>
<circle cx="697.95" cy="169.73" r="2.2" fill="#2a9d5b"/>
<circle cx="725.13" cy="152.50" r="2.2" fill="#2a9d5b"/>
<circle cx="752.31" cy="147.49" r="2.2" fill="#2a9d5b"/>
<circle cx="779.49" cy="126.43" r="2.2" fill="#2a9d5b"/>
<circle cx="806.67" cy="140.16" r="2.2" fill="#2a9d5b"/>
<circle cx="833.85" cy="111.77" r="2.2" fill="#2a9d5b"/>
<circle cx="861.03" cy="102.67" r="2.2" fill="#2a9d5b"/>
<circle cx="888.21" cy="115.07" r="2.2" fill="#2a9d5b"/>
<circle cx="915.38" cy="90.00" r="2.2" fill="#2a9d5b"/>
<circle cx="942.56" cy="90.00" r="2.2" fill="#2a9d5b"/>
<circle cx="969.74" cy="90.00" r="2.2" fill="#2a9d5b"/>
<circle cx="996.92" cy="94.97" r="2.2" fill="#2a9d5b"/>
<circle cx="1024.10" cy="90.00" r="2.2" fill="#2a9d5b"/>
<circle cx="1051.28" cy="90.00" r="2.2" fill="#2a9d5b"/>
<circle cx="1078.46" cy="90.00" r="2.2" fill="#2a9d5b"/>
<circle cx="1105.64" cy="90.00" r="2.2" fill="#2a9d5b"/>
<circle cx="1132.82" cy="90.00" r="2.2" fill="#2a9d5b"/>
<circle cx="1160.00" cy="90.00" r="2.2" fill="#2a9d5b"/>
<text x="100" y="578" font-family="monospace" font-size="13" fill="#444">mutation std</text>
<line x1="100" y1="770.00" x2="1160" y2="770.00" stroke="#ddd7c8" stroke-width="1"/>
<text x="88" y="775.00" text-anchor="end" font-family="monospace" font-size="12" fill="#555">0.0290</text>
<line x1="100" y1="725.00" x2="1160" y2="725.00" stroke="#ddd7c8" stroke-width="1"/>
<text x="88" y="730.00" text-anchor="end" font-family="monospace" font-size="12" fill="#555">0.0300</text>
<line x1="100" y1="680.00" x2="1160" y2="680.00" stroke="#ddd7c8" stroke-width="1"/>
<text x="88" y="685.00" text-anchor="end" font-family="monospace" font-size="12" fill="#555">0.0310</text>
<line x1="100" y1="635.00" x2="1160" y2="635.00" stroke="#ddd7c8" stroke-width="1"/>
<text x="88" y="640.00" text-anchor="end" font-family="monospace" font-size="12" fill="#555">0.0320</text>
<line x1="100" y1="590.00" x2="1160" y2="590.00" stroke="#ddd7c8" stroke-width="1"/>
<text x="88" y="595.00" text-anchor="end" font-family="monospace" font-size="12" fill="#555">0.0330</text>
<rect x="100" y="590" width="1060" height="180" fill="none" stroke="#222" stroke-width="1.5"/>
<polyline fill="none" stroke="#b85c38" stroke-width="4" points="100.00,725.00 127.18,722.93 154.36,729.94 181.54,736.40 208.72,742.71 235.90,738.52 263.08,733.52 290.26,723.52 317.44,703.11 344.62,682.64 371.79,693.46 398.97,697.48 426.15,706.28 453.33,702.29 480.51,687.12 507.69,687.49 534.87,682.31 562.05,689.77 589.23,682.85 616.41,669.84 643.59,648.78 670.77,637.66 697.95,619.04 725.13,611.46 752.31,611.94 779.49,658.29 806.67,678.93 833.85,685.95 861.03,685.30 888.21,693.65 915.38,682.03 942.56,678.98 969.74,664.23 996.92,655.56 1024.10,640.67 1051.28,617.22 1078.46,608.53 1105.64,610.53 1132.82,600.15 1160.00,602.00"/>
<circle cx="100.00" cy="725.00" r="2.2" fill="#b85c38"/>
<circle cx="127.18" cy="722.93" r="2.2" fill="#b85c38"/>
<circle cx="154.36" cy="729.94" r="2.2" fill="#b85c38"/>
<circle cx="181.54" cy="736.40" r="2.2" fill="#b85c38"/>
<circle cx="208.72" cy="742.71" r="2.2" fill="#b85c38"/>
<circle cx="235.90" cy="738.52" r="2.2" fill="#b85c38"/>
<circle cx="263.08" cy="733.52" r="2.2" fill="#b85c38"/>
<circle cx="290.26" cy="723.52" r="2.2" fill="#b85c38"/>
<circle cx="317.44" cy="703.11" r="2.2" fill="#b85c38"/>
<circle cx="344.62" cy="682.64" r="2.2" fill="#b85c38"/>
<circle cx="371.79" cy="693.46" r="2.2" fill="#b85c38"/>
<circle cx="398.97" cy="697.48" r="2.2" fill="#b85c38"/>
<circle cx="426.15" cy="706.28" r="2.2" fill="#b85c38"/>
<circle cx="453.33" cy="702.29" r="2.2" fill="#b85c38"/>
<circle cx="480.51" cy="687.12" r="2.2" fill="#b85c38"/>
<circle cx="507.69" cy="687.49" r="2.2" fill="#b85c38"/>
<circle cx="534.87" cy="682.31" r="2.2" fill="#b85c38"/>
<circle cx="562.05" cy="689.77" r="2.2" fill="#b85c38"/>
<circle cx="589.23" cy="682.85" r="2.2" fill="#b85c38"/>
<circle cx="616.41" cy="669.84" r="2.2" fill="#b85c38"/>
<circle cx="643.59" cy="648.78" r="2.2" fill="#b85c38"/>
<circle cx="670.77" cy="637.66" r="2.2" fill="#b85c38"/>
<circle cx="697.95" cy="619.04" r="2.2" fill="#b85c38"/>
<circle cx="725.13" cy="611.46" r="2.2" fill="#b85c38"/>
<circle cx="752.31" cy="611.94" r="2.2" fill="#b85c38"/>
<circle cx="779.49" cy="658.29" r="2.2" fill="#b85c38"/>
<circle cx="806.67" cy="678.93" r="2.2" fill="#b85c38"/>
<circle cx="833.85" cy="685.95" r="2.2" fill="#b85c38"/>
<circle cx="861.03" cy="685.30" r="2.2" fill="#b85c38"/>
<circle cx="888.21" cy="693.65" r="2.2" fill="#b85c38"/>
<circle cx="915.38" cy="682.03" r="2.2" fill="#b85c38"/>
<circle cx="942.56" cy="678.98" r="2.2" fill="#b85c38"/>
<circle cx="969.74" cy="664.23" r="2.2" fill="#b85c38"/>
<circle cx="996.92" cy="655.56" r="2.2" fill="#b85c38"/>
<circle cx="1024.10" cy="640.67" r="2.2" fill="#b85c38"/>
<circle cx="1051.28" cy="617.22" r="2.2" fill="#b85c38"/>
<circle cx="1078.46" cy="608.53" r="2.2" fill="#b85c38"/>
<circle cx="1105.64" cy="610.53" r="2.2" fill="#b85c38"/>
<circle cx="1132.82" cy="600.15" r="2.2" fill="#b85c38"/>
<circle cx="1160.00" cy="602.00" r="2.2" fill="#b85c38"/>
<text x="100.00" y="790" text-anchor="middle" font-family="monospace" font-size="12" fill="#555">0</text>
<text x="181.54" y="790" text-anchor="middle" font-family="monospace" font-size="12" fill="#555">3</text>
<text x="263.08" y="790" text-anchor="middle" font-family="monospace" font-size="12" fill="#555">6</text>
<text x="344.62" y="790" text-anchor="middle" font-family="monospace" font-size="12" fill="#555">9</text>
<text x="426.15" y="790" text-anchor="middle" font-family="monospace" font-size="12" fill="#555">12</text>
<text x="507.69" y="790" text-anchor="middle" font-family="monospace" font-size="12" fill="#555">15</text>
<text x="589.23" y="790" text-anchor="middle" font-family="monospace" font-size="12" fill="#555">18</text>
<text x="670.77" y="790" text-anchor="middle" font-family="monospace" font-size="12" fill="#555">21</text>
<text x="752.31" y="790" text-anchor="middle" font-family="monospace" font-size="12" fill="#555">24</text>
<text x="833.85" y="790" text-anchor="middle" font-family="monospace" font-size="12" fill="#555">27</text>
<text x="915.38" y="790" text-anchor="middle" font-family="monospace" font-size="12" fill="#555">30</text>
<text x="996.92" y="790" text-anchor="middle" font-family="monospace" font-size="12" fill="#555">33</text>
<text x="1078.46" y="790" text-anchor="middle" font-family="monospace" font-size="12" fill="#555">36</text>
<text x="1160.00" y="790" text-anchor="middle" font-family="monospace" font-size="12" fill="#555">39</text>
<rect x="100" y="788" width="290" height="78" rx="10" fill="#fffdf8" stroke="#d8d1c2"/>
<line x1="118" y1="816" x2="152" y2="816" stroke="#2a9d5b" stroke-width="4"/>
<text x="162" y="820" font-family="monospace" font-size="13" fill="#222">best fitness</text>
<line x1="118" y1="840" x2="152" y2="840" stroke="#1f77b4" stroke-width="4"/>
<text x="162" y="844" font-family="monospace" font-size="13" fill="#222">mean fitness</text>
<line x1="118" y1="864" x2="152" y2="864" stroke="#b85c38" stroke-width="4"/>
<text x="162" y="868" font-family="monospace" font-size="13" fill="#222">mutation std</text>
<text x="600" y="878" text-anchor="middle" font-family="monospace" font-size="13" fill="#444">generation</text>
<text x="26" y="305.00" transform="rotate(-90 26 305.00)" text-anchor="middle" font-family="monospace" font-size="13" fill="#444">soft-accuracy fitness</text>
<text x="26" y="680.00" transform="rotate(-90 26 680.00)" text-anchor="middle" font-family="monospace" font-size="13" fill="#444">mutation std</text>
</svg>
